%TF.GenerationSoftware,KiCad,Pcbnew,(6.0.2)*%
%TF.CreationDate,2022-02-22T17:34:29+01:00*%
%TF.ProjectId,temp_hotspot_detector,74656d70-5f68-46f7-9473-706f745f6465,rev?*%
%TF.SameCoordinates,Original*%
%TF.FileFunction,Legend,Top*%
%TF.FilePolarity,Positive*%
%FSLAX46Y46*%
G04 Gerber Fmt 4.6, Leading zero omitted, Abs format (unit mm)*
G04 Created by KiCad (PCBNEW (6.0.2)) date 2022-02-22 17:34:29*
%MOMM*%
%LPD*%
G01*
G04 APERTURE LIST*
G04 Aperture macros list*
%AMRoundRect*
0 Rectangle with rounded corners*
0 $1 Rounding radius*
0 $2 $3 $4 $5 $6 $7 $8 $9 X,Y pos of 4 corners*
0 Add a 4 corners polygon primitive as box body*
4,1,4,$2,$3,$4,$5,$6,$7,$8,$9,$2,$3,0*
0 Add four circle primitives for the rounded corners*
1,1,$1+$1,$2,$3*
1,1,$1+$1,$4,$5*
1,1,$1+$1,$6,$7*
1,1,$1+$1,$8,$9*
0 Add four rect primitives between the rounded corners*
20,1,$1+$1,$2,$3,$4,$5,0*
20,1,$1+$1,$4,$5,$6,$7,0*
20,1,$1+$1,$6,$7,$8,$9,0*
20,1,$1+$1,$8,$9,$2,$3,0*%
G04 Aperture macros list end*
%ADD10C,0.150000*%
%ADD11C,0.120000*%
%ADD12RoundRect,0.200000X0.275000X-0.200000X0.275000X0.200000X-0.275000X0.200000X-0.275000X-0.200000X0*%
%ADD13R,1.700000X1.700000*%
%ADD14O,1.700000X1.700000*%
%ADD15RoundRect,0.200000X-0.275000X0.200000X-0.275000X-0.200000X0.275000X-0.200000X0.275000X0.200000X0*%
%ADD16RoundRect,0.200000X-0.200000X-0.275000X0.200000X-0.275000X0.200000X0.275000X-0.200000X0.275000X0*%
%ADD17RoundRect,0.225000X-0.250000X0.225000X-0.250000X-0.225000X0.250000X-0.225000X0.250000X0.225000X0*%
%ADD18RoundRect,0.150000X0.587500X0.150000X-0.587500X0.150000X-0.587500X-0.150000X0.587500X-0.150000X0*%
G04 APERTURE END LIST*
D10*
X30188214Y-54062380D02*
X30521547Y-55062380D01*
X30854880Y-54062380D01*
X31188214Y-55062380D02*
X31188214Y-54062380D01*
X31188214Y-54443333D02*
X31283452Y-54395714D01*
X31473928Y-54395714D01*
X31569166Y-54443333D01*
X31616785Y-54490952D01*
X31664404Y-54586190D01*
X31664404Y-54871904D01*
X31616785Y-54967142D01*
X31569166Y-55014761D01*
X31473928Y-55062380D01*
X31283452Y-55062380D01*
X31188214Y-55014761D01*
X32521547Y-55062380D02*
X32521547Y-54538571D01*
X32473928Y-54443333D01*
X32378690Y-54395714D01*
X32188214Y-54395714D01*
X32092976Y-54443333D01*
X32521547Y-55014761D02*
X32426309Y-55062380D01*
X32188214Y-55062380D01*
X32092976Y-55014761D01*
X32045357Y-54919523D01*
X32045357Y-54824285D01*
X32092976Y-54729047D01*
X32188214Y-54681428D01*
X32426309Y-54681428D01*
X32521547Y-54633809D01*
X32854880Y-54395714D02*
X33235833Y-54395714D01*
X32997738Y-54062380D02*
X32997738Y-54919523D01*
X33045357Y-55014761D01*
X33140595Y-55062380D01*
X33235833Y-55062380D01*
X33426309Y-54395714D02*
X33807261Y-54395714D01*
X33569166Y-54062380D02*
X33569166Y-54919523D01*
X33616785Y-55014761D01*
X33712023Y-55062380D01*
X33807261Y-55062380D01*
X31049642Y-56602380D02*
X31382976Y-57602380D01*
X31716309Y-56602380D01*
X32192500Y-57602380D02*
X32097261Y-57554761D01*
X32049642Y-57507142D01*
X32002023Y-57411904D01*
X32002023Y-57126190D01*
X32049642Y-57030952D01*
X32097261Y-56983333D01*
X32192500Y-56935714D01*
X32335357Y-56935714D01*
X32430595Y-56983333D01*
X32478214Y-57030952D01*
X32525833Y-57126190D01*
X32525833Y-57411904D01*
X32478214Y-57507142D01*
X32430595Y-57554761D01*
X32335357Y-57602380D01*
X32192500Y-57602380D01*
X33382976Y-56935714D02*
X33382976Y-57602380D01*
X32954404Y-56935714D02*
X32954404Y-57459523D01*
X33002023Y-57554761D01*
X33097261Y-57602380D01*
X33240119Y-57602380D01*
X33335357Y-57554761D01*
X33382976Y-57507142D01*
X33716309Y-56935714D02*
X34097261Y-56935714D01*
X33859166Y-56602380D02*
X33859166Y-57459523D01*
X33906785Y-57554761D01*
X34002023Y-57602380D01*
X34097261Y-57602380D01*
X31616785Y-59190000D02*
X31521547Y-59142380D01*
X31378690Y-59142380D01*
X31235833Y-59190000D01*
X31140595Y-59285238D01*
X31092976Y-59380476D01*
X31045357Y-59570952D01*
X31045357Y-59713809D01*
X31092976Y-59904285D01*
X31140595Y-59999523D01*
X31235833Y-60094761D01*
X31378690Y-60142380D01*
X31473928Y-60142380D01*
X31616785Y-60094761D01*
X31664404Y-60047142D01*
X31664404Y-59713809D01*
X31473928Y-59713809D01*
X32092976Y-60142380D02*
X32092976Y-59142380D01*
X32664404Y-60142380D01*
X32664404Y-59142380D01*
X33140595Y-60142380D02*
X33140595Y-59142380D01*
X33378690Y-59142380D01*
X33521547Y-59190000D01*
X33616785Y-59285238D01*
X33664404Y-59380476D01*
X33712023Y-59570952D01*
X33712023Y-59713809D01*
X33664404Y-59904285D01*
X33616785Y-59999523D01*
X33521547Y-60094761D01*
X33378690Y-60142380D01*
X33140595Y-60142380D01*
X57952380Y-52392857D02*
X57476190Y-52726190D01*
X57952380Y-52964285D02*
X56952380Y-52964285D01*
X56952380Y-52583333D01*
X57000000Y-52488095D01*
X57047619Y-52440476D01*
X57142857Y-52392857D01*
X57285714Y-52392857D01*
X57380952Y-52440476D01*
X57428571Y-52488095D01*
X57476190Y-52583333D01*
X57476190Y-52964285D01*
X57952380Y-51440476D02*
X57952380Y-52011904D01*
X57952380Y-51726190D02*
X56952380Y-51726190D01*
X57095238Y-51821428D01*
X57190476Y-51916666D01*
X57238095Y-52011904D01*
X56952380Y-51107142D02*
X56952380Y-50488095D01*
X57333333Y-50821428D01*
X57333333Y-50678571D01*
X57380952Y-50583333D01*
X57428571Y-50535714D01*
X57523809Y-50488095D01*
X57761904Y-50488095D01*
X57857142Y-50535714D01*
X57904761Y-50583333D01*
X57952380Y-50678571D01*
X57952380Y-50964285D01*
X57904761Y-51059523D01*
X57857142Y-51107142D01*
X47666666Y-66782380D02*
X47666666Y-67496666D01*
X47619047Y-67639523D01*
X47523809Y-67734761D01*
X47380952Y-67782380D01*
X47285714Y-67782380D01*
X48190476Y-67782380D02*
X48380952Y-67782380D01*
X48476190Y-67734761D01*
X48523809Y-67687142D01*
X48619047Y-67544285D01*
X48666666Y-67353809D01*
X48666666Y-66972857D01*
X48619047Y-66877619D01*
X48571428Y-66830000D01*
X48476190Y-66782380D01*
X48285714Y-66782380D01*
X48190476Y-66830000D01*
X48142857Y-66877619D01*
X48095238Y-66972857D01*
X48095238Y-67210952D01*
X48142857Y-67306190D01*
X48190476Y-67353809D01*
X48285714Y-67401428D01*
X48476190Y-67401428D01*
X48571428Y-67353809D01*
X48619047Y-67306190D01*
X48666666Y-67210952D01*
X67202380Y-52416666D02*
X66726190Y-52750000D01*
X67202380Y-52988095D02*
X66202380Y-52988095D01*
X66202380Y-52607142D01*
X66250000Y-52511904D01*
X66297619Y-52464285D01*
X66392857Y-52416666D01*
X66535714Y-52416666D01*
X66630952Y-52464285D01*
X66678571Y-52511904D01*
X66726190Y-52607142D01*
X66726190Y-52988095D01*
X66202380Y-51559523D02*
X66202380Y-51750000D01*
X66250000Y-51845238D01*
X66297619Y-51892857D01*
X66440476Y-51988095D01*
X66630952Y-52035714D01*
X67011904Y-52035714D01*
X67107142Y-51988095D01*
X67154761Y-51940476D01*
X67202380Y-51845238D01*
X67202380Y-51654761D01*
X67154761Y-51559523D01*
X67107142Y-51511904D01*
X67011904Y-51464285D01*
X66773809Y-51464285D01*
X66678571Y-51511904D01*
X66630952Y-51559523D01*
X66583333Y-51654761D01*
X66583333Y-51845238D01*
X66630952Y-51940476D01*
X66678571Y-51988095D01*
X66773809Y-52035714D01*
X63666666Y-66782380D02*
X63666666Y-67496666D01*
X63619047Y-67639523D01*
X63523809Y-67734761D01*
X63380952Y-67782380D01*
X63285714Y-67782380D01*
X64619047Y-66782380D02*
X64142857Y-66782380D01*
X64095238Y-67258571D01*
X64142857Y-67210952D01*
X64238095Y-67163333D01*
X64476190Y-67163333D01*
X64571428Y-67210952D01*
X64619047Y-67258571D01*
X64666666Y-67353809D01*
X64666666Y-67591904D01*
X64619047Y-67687142D01*
X64571428Y-67734761D01*
X64476190Y-67782380D01*
X64238095Y-67782380D01*
X64142857Y-67734761D01*
X64095238Y-67687142D01*
X66714285Y-69022380D02*
X67285714Y-69022380D01*
X67000000Y-70022380D02*
X67000000Y-69022380D01*
X67619047Y-70022380D02*
X67619047Y-69022380D01*
X67619047Y-69498571D02*
X68190476Y-69498571D01*
X68190476Y-70022380D02*
X68190476Y-69022380D01*
X68571428Y-69022380D02*
X69190476Y-69022380D01*
X68857142Y-69403333D01*
X69000000Y-69403333D01*
X69095238Y-69450952D01*
X69142857Y-69498571D01*
X69190476Y-69593809D01*
X69190476Y-69831904D01*
X69142857Y-69927142D01*
X69095238Y-69974761D01*
X69000000Y-70022380D01*
X68714285Y-70022380D01*
X68619047Y-69974761D01*
X68571428Y-69927142D01*
X58714285Y-69022380D02*
X59285714Y-69022380D01*
X59000000Y-70022380D02*
X59000000Y-69022380D01*
X59619047Y-70022380D02*
X59619047Y-69022380D01*
X59619047Y-69498571D02*
X60190476Y-69498571D01*
X60190476Y-70022380D02*
X60190476Y-69022380D01*
X61142857Y-69022380D02*
X60666666Y-69022380D01*
X60619047Y-69498571D01*
X60666666Y-69450952D01*
X60761904Y-69403333D01*
X61000000Y-69403333D01*
X61095238Y-69450952D01*
X61142857Y-69498571D01*
X61190476Y-69593809D01*
X61190476Y-69831904D01*
X61142857Y-69927142D01*
X61095238Y-69974761D01*
X61000000Y-70022380D01*
X60761904Y-70022380D01*
X60666666Y-69974761D01*
X60619047Y-69927142D01*
X65952380Y-52416666D02*
X65476190Y-52750000D01*
X65952380Y-52988095D02*
X64952380Y-52988095D01*
X64952380Y-52607142D01*
X65000000Y-52511904D01*
X65047619Y-52464285D01*
X65142857Y-52416666D01*
X65285714Y-52416666D01*
X65380952Y-52464285D01*
X65428571Y-52511904D01*
X65476190Y-52607142D01*
X65476190Y-52988095D01*
X65952380Y-51940476D02*
X65952380Y-51750000D01*
X65904761Y-51654761D01*
X65857142Y-51607142D01*
X65714285Y-51511904D01*
X65523809Y-51464285D01*
X65142857Y-51464285D01*
X65047619Y-51511904D01*
X65000000Y-51559523D01*
X64952380Y-51654761D01*
X64952380Y-51845238D01*
X65000000Y-51940476D01*
X65047619Y-51988095D01*
X65142857Y-52035714D01*
X65380952Y-52035714D01*
X65476190Y-51988095D01*
X65523809Y-51940476D01*
X65571428Y-51845238D01*
X65571428Y-51654761D01*
X65523809Y-51559523D01*
X65476190Y-51511904D01*
X65380952Y-51464285D01*
X47202380Y-52392857D02*
X46726190Y-52726190D01*
X47202380Y-52964285D02*
X46202380Y-52964285D01*
X46202380Y-52583333D01*
X46250000Y-52488095D01*
X46297619Y-52440476D01*
X46392857Y-52392857D01*
X46535714Y-52392857D01*
X46630952Y-52440476D01*
X46678571Y-52488095D01*
X46726190Y-52583333D01*
X46726190Y-52964285D01*
X47202380Y-51440476D02*
X47202380Y-52011904D01*
X47202380Y-51726190D02*
X46202380Y-51726190D01*
X46345238Y-51821428D01*
X46440476Y-51916666D01*
X46488095Y-52011904D01*
X46202380Y-50583333D02*
X46202380Y-50773809D01*
X46250000Y-50869047D01*
X46297619Y-50916666D01*
X46440476Y-51011904D01*
X46630952Y-51059523D01*
X47011904Y-51059523D01*
X47107142Y-51011904D01*
X47154761Y-50964285D01*
X47202380Y-50869047D01*
X47202380Y-50678571D01*
X47154761Y-50583333D01*
X47107142Y-50535714D01*
X47011904Y-50488095D01*
X46773809Y-50488095D01*
X46678571Y-50535714D01*
X46630952Y-50583333D01*
X46583333Y-50678571D01*
X46583333Y-50869047D01*
X46630952Y-50964285D01*
X46678571Y-51011904D01*
X46773809Y-51059523D01*
X43190476Y-66782380D02*
X43190476Y-67496666D01*
X43142857Y-67639523D01*
X43047619Y-67734761D01*
X42904761Y-67782380D01*
X42809523Y-67782380D01*
X44190476Y-67782380D02*
X43619047Y-67782380D01*
X43904761Y-67782380D02*
X43904761Y-66782380D01*
X43809523Y-66925238D01*
X43714285Y-67020476D01*
X43619047Y-67068095D01*
X44809523Y-66782380D02*
X44904761Y-66782380D01*
X45000000Y-66830000D01*
X45047619Y-66877619D01*
X45095238Y-66972857D01*
X45142857Y-67163333D01*
X45142857Y-67401428D01*
X45095238Y-67591904D01*
X45047619Y-67687142D01*
X45000000Y-67734761D01*
X44904761Y-67782380D01*
X44809523Y-67782380D01*
X44714285Y-67734761D01*
X44666666Y-67687142D01*
X44619047Y-67591904D01*
X44571428Y-67401428D01*
X44571428Y-67163333D01*
X44619047Y-66972857D01*
X44666666Y-66877619D01*
X44714285Y-66830000D01*
X44809523Y-66782380D01*
X71202380Y-52416666D02*
X70726190Y-52750000D01*
X71202380Y-52988095D02*
X70202380Y-52988095D01*
X70202380Y-52607142D01*
X70250000Y-52511904D01*
X70297619Y-52464285D01*
X70392857Y-52416666D01*
X70535714Y-52416666D01*
X70630952Y-52464285D01*
X70678571Y-52511904D01*
X70726190Y-52607142D01*
X70726190Y-52988095D01*
X70535714Y-51559523D02*
X71202380Y-51559523D01*
X70154761Y-51797619D02*
X70869047Y-52035714D01*
X70869047Y-51416666D01*
X40357142Y-60866666D02*
X40404761Y-60914285D01*
X40452380Y-61057142D01*
X40452380Y-61152380D01*
X40404761Y-61295238D01*
X40309523Y-61390476D01*
X40214285Y-61438095D01*
X40023809Y-61485714D01*
X39880952Y-61485714D01*
X39690476Y-61438095D01*
X39595238Y-61390476D01*
X39500000Y-61295238D01*
X39452380Y-61152380D01*
X39452380Y-61057142D01*
X39500000Y-60914285D01*
X39547619Y-60866666D01*
X40452380Y-59914285D02*
X40452380Y-60485714D01*
X40452380Y-60200000D02*
X39452380Y-60200000D01*
X39595238Y-60295238D01*
X39690476Y-60390476D01*
X39738095Y-60485714D01*
X43202380Y-52392857D02*
X42726190Y-52726190D01*
X43202380Y-52964285D02*
X42202380Y-52964285D01*
X42202380Y-52583333D01*
X42250000Y-52488095D01*
X42297619Y-52440476D01*
X42392857Y-52392857D01*
X42535714Y-52392857D01*
X42630952Y-52440476D01*
X42678571Y-52488095D01*
X42726190Y-52583333D01*
X42726190Y-52964285D01*
X43202380Y-51440476D02*
X43202380Y-52011904D01*
X43202380Y-51726190D02*
X42202380Y-51726190D01*
X42345238Y-51821428D01*
X42440476Y-51916666D01*
X42488095Y-52011904D01*
X42630952Y-50869047D02*
X42583333Y-50964285D01*
X42535714Y-51011904D01*
X42440476Y-51059523D01*
X42392857Y-51059523D01*
X42297619Y-51011904D01*
X42250000Y-50964285D01*
X42202380Y-50869047D01*
X42202380Y-50678571D01*
X42250000Y-50583333D01*
X42297619Y-50535714D01*
X42392857Y-50488095D01*
X42440476Y-50488095D01*
X42535714Y-50535714D01*
X42583333Y-50583333D01*
X42630952Y-50678571D01*
X42630952Y-50869047D01*
X42678571Y-50964285D01*
X42726190Y-51011904D01*
X42821428Y-51059523D01*
X43011904Y-51059523D01*
X43107142Y-51011904D01*
X43154761Y-50964285D01*
X43202380Y-50869047D01*
X43202380Y-50678571D01*
X43154761Y-50583333D01*
X43107142Y-50535714D01*
X43011904Y-50488095D01*
X42821428Y-50488095D01*
X42726190Y-50535714D01*
X42678571Y-50583333D01*
X42630952Y-50678571D01*
X45952380Y-52392857D02*
X45476190Y-52726190D01*
X45952380Y-52964285D02*
X44952380Y-52964285D01*
X44952380Y-52583333D01*
X45000000Y-52488095D01*
X45047619Y-52440476D01*
X45142857Y-52392857D01*
X45285714Y-52392857D01*
X45380952Y-52440476D01*
X45428571Y-52488095D01*
X45476190Y-52583333D01*
X45476190Y-52964285D01*
X45952380Y-51440476D02*
X45952380Y-52011904D01*
X45952380Y-51726190D02*
X44952380Y-51726190D01*
X45095238Y-51821428D01*
X45190476Y-51916666D01*
X45238095Y-52011904D01*
X45952380Y-50964285D02*
X45952380Y-50773809D01*
X45904761Y-50678571D01*
X45857142Y-50630952D01*
X45714285Y-50535714D01*
X45523809Y-50488095D01*
X45142857Y-50488095D01*
X45047619Y-50535714D01*
X45000000Y-50583333D01*
X44952380Y-50678571D01*
X44952380Y-50869047D01*
X45000000Y-50964285D01*
X45047619Y-51011904D01*
X45142857Y-51059523D01*
X45380952Y-51059523D01*
X45476190Y-51011904D01*
X45523809Y-50964285D01*
X45571428Y-50869047D01*
X45571428Y-50678571D01*
X45523809Y-50583333D01*
X45476190Y-50535714D01*
X45380952Y-50488095D01*
X55666666Y-66782380D02*
X55666666Y-67496666D01*
X55619047Y-67639523D01*
X55523809Y-67734761D01*
X55380952Y-67782380D01*
X55285714Y-67782380D01*
X56047619Y-66782380D02*
X56714285Y-66782380D01*
X56285714Y-67782380D01*
X35416666Y-61057380D02*
X35416666Y-61771666D01*
X35369047Y-61914523D01*
X35273809Y-62009761D01*
X35130952Y-62057380D01*
X35035714Y-62057380D01*
X36416666Y-62057380D02*
X35845238Y-62057380D01*
X36130952Y-62057380D02*
X36130952Y-61057380D01*
X36035714Y-61200238D01*
X35940476Y-61295476D01*
X35845238Y-61343095D01*
X75202380Y-52416666D02*
X74726190Y-52750000D01*
X75202380Y-52988095D02*
X74202380Y-52988095D01*
X74202380Y-52607142D01*
X74250000Y-52511904D01*
X74297619Y-52464285D01*
X74392857Y-52416666D01*
X74535714Y-52416666D01*
X74630952Y-52464285D01*
X74678571Y-52511904D01*
X74726190Y-52607142D01*
X74726190Y-52988095D01*
X74297619Y-52035714D02*
X74250000Y-51988095D01*
X74202380Y-51892857D01*
X74202380Y-51654761D01*
X74250000Y-51559523D01*
X74297619Y-51511904D01*
X74392857Y-51464285D01*
X74488095Y-51464285D01*
X74630952Y-51511904D01*
X75202380Y-52083333D01*
X75202380Y-51464285D01*
X47300595Y-51952380D02*
X47300595Y-52761904D01*
X47348214Y-52857142D01*
X47395833Y-52904761D01*
X47491071Y-52952380D01*
X47681547Y-52952380D01*
X47776785Y-52904761D01*
X47824404Y-52857142D01*
X47872023Y-52761904D01*
X47872023Y-51952380D01*
X48491071Y-52380952D02*
X48395833Y-52333333D01*
X48348214Y-52285714D01*
X48300595Y-52190476D01*
X48300595Y-52142857D01*
X48348214Y-52047619D01*
X48395833Y-52000000D01*
X48491071Y-51952380D01*
X48681547Y-51952380D01*
X48776785Y-52000000D01*
X48824404Y-52047619D01*
X48872023Y-52142857D01*
X48872023Y-52190476D01*
X48824404Y-52285714D01*
X48776785Y-52333333D01*
X48681547Y-52380952D01*
X48491071Y-52380952D01*
X48395833Y-52428571D01*
X48348214Y-52476190D01*
X48300595Y-52571428D01*
X48300595Y-52761904D01*
X48348214Y-52857142D01*
X48395833Y-52904761D01*
X48491071Y-52952380D01*
X48681547Y-52952380D01*
X48776785Y-52904761D01*
X48824404Y-52857142D01*
X48872023Y-52761904D01*
X48872023Y-52571428D01*
X48824404Y-52476190D01*
X48776785Y-52428571D01*
X48681547Y-52380952D01*
X75300595Y-51952380D02*
X75300595Y-52761904D01*
X75348214Y-52857142D01*
X75395833Y-52904761D01*
X75491071Y-52952380D01*
X75681547Y-52952380D01*
X75776785Y-52904761D01*
X75824404Y-52857142D01*
X75872023Y-52761904D01*
X75872023Y-51952380D01*
X76872023Y-52952380D02*
X76300595Y-52952380D01*
X76586309Y-52952380D02*
X76586309Y-51952380D01*
X76491071Y-52095238D01*
X76395833Y-52190476D01*
X76300595Y-52238095D01*
X46714285Y-73522380D02*
X47285714Y-73522380D01*
X47000000Y-74522380D02*
X47000000Y-73522380D01*
X47619047Y-74522380D02*
X47619047Y-73522380D01*
X47619047Y-73998571D02*
X48190476Y-73998571D01*
X48190476Y-74522380D02*
X48190476Y-73522380D01*
X48809523Y-73950952D02*
X48714285Y-73903333D01*
X48666666Y-73855714D01*
X48619047Y-73760476D01*
X48619047Y-73712857D01*
X48666666Y-73617619D01*
X48714285Y-73570000D01*
X48809523Y-73522380D01*
X49000000Y-73522380D01*
X49095238Y-73570000D01*
X49142857Y-73617619D01*
X49190476Y-73712857D01*
X49190476Y-73760476D01*
X49142857Y-73855714D01*
X49095238Y-73903333D01*
X49000000Y-73950952D01*
X48809523Y-73950952D01*
X48714285Y-73998571D01*
X48666666Y-74046190D01*
X48619047Y-74141428D01*
X48619047Y-74331904D01*
X48666666Y-74427142D01*
X48714285Y-74474761D01*
X48809523Y-74522380D01*
X49000000Y-74522380D01*
X49095238Y-74474761D01*
X49142857Y-74427142D01*
X49190476Y-74331904D01*
X49190476Y-74141428D01*
X49142857Y-74046190D01*
X49095238Y-73998571D01*
X49000000Y-73950952D01*
X63202380Y-52416666D02*
X62726190Y-52750000D01*
X63202380Y-52988095D02*
X62202380Y-52988095D01*
X62202380Y-52607142D01*
X62250000Y-52511904D01*
X62297619Y-52464285D01*
X62392857Y-52416666D01*
X62535714Y-52416666D01*
X62630952Y-52464285D01*
X62678571Y-52511904D01*
X62726190Y-52607142D01*
X62726190Y-52988095D01*
X62630952Y-51845238D02*
X62583333Y-51940476D01*
X62535714Y-51988095D01*
X62440476Y-52035714D01*
X62392857Y-52035714D01*
X62297619Y-51988095D01*
X62250000Y-51940476D01*
X62202380Y-51845238D01*
X62202380Y-51654761D01*
X62250000Y-51559523D01*
X62297619Y-51511904D01*
X62392857Y-51464285D01*
X62440476Y-51464285D01*
X62535714Y-51511904D01*
X62583333Y-51559523D01*
X62630952Y-51654761D01*
X62630952Y-51845238D01*
X62678571Y-51940476D01*
X62726190Y-51988095D01*
X62821428Y-52035714D01*
X63011904Y-52035714D01*
X63107142Y-51988095D01*
X63154761Y-51940476D01*
X63202380Y-51845238D01*
X63202380Y-51654761D01*
X63154761Y-51559523D01*
X63107142Y-51511904D01*
X63011904Y-51464285D01*
X62821428Y-51464285D01*
X62726190Y-51511904D01*
X62678571Y-51559523D01*
X62630952Y-51654761D01*
X51202380Y-52392857D02*
X50726190Y-52726190D01*
X51202380Y-52964285D02*
X50202380Y-52964285D01*
X50202380Y-52583333D01*
X50250000Y-52488095D01*
X50297619Y-52440476D01*
X50392857Y-52392857D01*
X50535714Y-52392857D01*
X50630952Y-52440476D01*
X50678571Y-52488095D01*
X50726190Y-52583333D01*
X50726190Y-52964285D01*
X51202380Y-51440476D02*
X51202380Y-52011904D01*
X51202380Y-51726190D02*
X50202380Y-51726190D01*
X50345238Y-51821428D01*
X50440476Y-51916666D01*
X50488095Y-52011904D01*
X50535714Y-50583333D02*
X51202380Y-50583333D01*
X50154761Y-50821428D02*
X50869047Y-51059523D01*
X50869047Y-50440476D01*
X71666666Y-66782380D02*
X71666666Y-67496666D01*
X71619047Y-67639523D01*
X71523809Y-67734761D01*
X71380952Y-67782380D01*
X71285714Y-67782380D01*
X72047619Y-66782380D02*
X72666666Y-66782380D01*
X72333333Y-67163333D01*
X72476190Y-67163333D01*
X72571428Y-67210952D01*
X72619047Y-67258571D01*
X72666666Y-67353809D01*
X72666666Y-67591904D01*
X72619047Y-67687142D01*
X72571428Y-67734761D01*
X72476190Y-67782380D01*
X72190476Y-67782380D01*
X72095238Y-67734761D01*
X72047619Y-67687142D01*
X51300595Y-51952380D02*
X51300595Y-52761904D01*
X51348214Y-52857142D01*
X51395833Y-52904761D01*
X51491071Y-52952380D01*
X51681547Y-52952380D01*
X51776785Y-52904761D01*
X51824404Y-52857142D01*
X51872023Y-52761904D01*
X51872023Y-51952380D01*
X52252976Y-51952380D02*
X52919642Y-51952380D01*
X52491071Y-52952380D01*
X67666666Y-66782380D02*
X67666666Y-67496666D01*
X67619047Y-67639523D01*
X67523809Y-67734761D01*
X67380952Y-67782380D01*
X67285714Y-67782380D01*
X68571428Y-67115714D02*
X68571428Y-67782380D01*
X68333333Y-66734761D02*
X68095238Y-67449047D01*
X68714285Y-67449047D01*
X59666666Y-66782380D02*
X59666666Y-67496666D01*
X59619047Y-67639523D01*
X59523809Y-67734761D01*
X59380952Y-67782380D01*
X59285714Y-67782380D01*
X60571428Y-66782380D02*
X60380952Y-66782380D01*
X60285714Y-66830000D01*
X60238095Y-66877619D01*
X60142857Y-67020476D01*
X60095238Y-67210952D01*
X60095238Y-67591904D01*
X60142857Y-67687142D01*
X60190476Y-67734761D01*
X60285714Y-67782380D01*
X60476190Y-67782380D01*
X60571428Y-67734761D01*
X60619047Y-67687142D01*
X60666666Y-67591904D01*
X60666666Y-67353809D01*
X60619047Y-67258571D01*
X60571428Y-67210952D01*
X60476190Y-67163333D01*
X60285714Y-67163333D01*
X60190476Y-67210952D01*
X60142857Y-67258571D01*
X60095238Y-67353809D01*
X55202380Y-52392857D02*
X54726190Y-52726190D01*
X55202380Y-52964285D02*
X54202380Y-52964285D01*
X54202380Y-52583333D01*
X54250000Y-52488095D01*
X54297619Y-52440476D01*
X54392857Y-52392857D01*
X54535714Y-52392857D01*
X54630952Y-52440476D01*
X54678571Y-52488095D01*
X54726190Y-52583333D01*
X54726190Y-52964285D01*
X55202380Y-51440476D02*
X55202380Y-52011904D01*
X55202380Y-51726190D02*
X54202380Y-51726190D01*
X54345238Y-51821428D01*
X54440476Y-51916666D01*
X54488095Y-52011904D01*
X54297619Y-51059523D02*
X54250000Y-51011904D01*
X54202380Y-50916666D01*
X54202380Y-50678571D01*
X54250000Y-50583333D01*
X54297619Y-50535714D01*
X54392857Y-50488095D01*
X54488095Y-50488095D01*
X54630952Y-50535714D01*
X55202380Y-51107142D01*
X55202380Y-50488095D01*
X54714285Y-73522380D02*
X55285714Y-73522380D01*
X55000000Y-74522380D02*
X55000000Y-73522380D01*
X55619047Y-74522380D02*
X55619047Y-73522380D01*
X55619047Y-73998571D02*
X56190476Y-73998571D01*
X56190476Y-74522380D02*
X56190476Y-73522380D01*
X57095238Y-73522380D02*
X56904761Y-73522380D01*
X56809523Y-73570000D01*
X56761904Y-73617619D01*
X56666666Y-73760476D01*
X56619047Y-73950952D01*
X56619047Y-74331904D01*
X56666666Y-74427142D01*
X56714285Y-74474761D01*
X56809523Y-74522380D01*
X57000000Y-74522380D01*
X57095238Y-74474761D01*
X57142857Y-74427142D01*
X57190476Y-74331904D01*
X57190476Y-74093809D01*
X57142857Y-73998571D01*
X57095238Y-73950952D01*
X57000000Y-73903333D01*
X56809523Y-73903333D01*
X56714285Y-73950952D01*
X56666666Y-73998571D01*
X56619047Y-74093809D01*
X43300595Y-51952380D02*
X43300595Y-52761904D01*
X43348214Y-52857142D01*
X43395833Y-52904761D01*
X43491071Y-52952380D01*
X43681547Y-52952380D01*
X43776785Y-52904761D01*
X43824404Y-52857142D01*
X43872023Y-52761904D01*
X43872023Y-51952380D01*
X44395833Y-52952380D02*
X44586309Y-52952380D01*
X44681547Y-52904761D01*
X44729166Y-52857142D01*
X44824404Y-52714285D01*
X44872023Y-52523809D01*
X44872023Y-52142857D01*
X44824404Y-52047619D01*
X44776785Y-52000000D01*
X44681547Y-51952380D01*
X44491071Y-51952380D01*
X44395833Y-52000000D01*
X44348214Y-52047619D01*
X44300595Y-52142857D01*
X44300595Y-52380952D01*
X44348214Y-52476190D01*
X44395833Y-52523809D01*
X44491071Y-52571428D01*
X44681547Y-52571428D01*
X44776785Y-52523809D01*
X44824404Y-52476190D01*
X44872023Y-52380952D01*
X71300595Y-51952380D02*
X71300595Y-52761904D01*
X71348214Y-52857142D01*
X71395833Y-52904761D01*
X71491071Y-52952380D01*
X71681547Y-52952380D01*
X71776785Y-52904761D01*
X71824404Y-52857142D01*
X71872023Y-52761904D01*
X71872023Y-51952380D01*
X72300595Y-52047619D02*
X72348214Y-52000000D01*
X72443452Y-51952380D01*
X72681547Y-51952380D01*
X72776785Y-52000000D01*
X72824404Y-52047619D01*
X72872023Y-52142857D01*
X72872023Y-52238095D01*
X72824404Y-52380952D01*
X72252976Y-52952380D01*
X72872023Y-52952380D01*
X70714285Y-73522380D02*
X71285714Y-73522380D01*
X71000000Y-74522380D02*
X71000000Y-73522380D01*
X71619047Y-74522380D02*
X71619047Y-73522380D01*
X71619047Y-73998571D02*
X72190476Y-73998571D01*
X72190476Y-74522380D02*
X72190476Y-73522380D01*
X72619047Y-73617619D02*
X72666666Y-73570000D01*
X72761904Y-73522380D01*
X73000000Y-73522380D01*
X73095238Y-73570000D01*
X73142857Y-73617619D01*
X73190476Y-73712857D01*
X73190476Y-73808095D01*
X73142857Y-73950952D01*
X72571428Y-74522380D01*
X73190476Y-74522380D01*
X75666666Y-66782380D02*
X75666666Y-67496666D01*
X75619047Y-67639523D01*
X75523809Y-67734761D01*
X75380952Y-67782380D01*
X75285714Y-67782380D01*
X76095238Y-66877619D02*
X76142857Y-66830000D01*
X76238095Y-66782380D01*
X76476190Y-66782380D01*
X76571428Y-66830000D01*
X76619047Y-66877619D01*
X76666666Y-66972857D01*
X76666666Y-67068095D01*
X76619047Y-67210952D01*
X76047619Y-67782380D01*
X76666666Y-67782380D01*
X73952380Y-52416666D02*
X73476190Y-52750000D01*
X73952380Y-52988095D02*
X72952380Y-52988095D01*
X72952380Y-52607142D01*
X73000000Y-52511904D01*
X73047619Y-52464285D01*
X73142857Y-52416666D01*
X73285714Y-52416666D01*
X73380952Y-52464285D01*
X73428571Y-52511904D01*
X73476190Y-52607142D01*
X73476190Y-52988095D01*
X72952380Y-51511904D02*
X72952380Y-51988095D01*
X73428571Y-52035714D01*
X73380952Y-51988095D01*
X73333333Y-51892857D01*
X73333333Y-51654761D01*
X73380952Y-51559523D01*
X73428571Y-51511904D01*
X73523809Y-51464285D01*
X73761904Y-51464285D01*
X73857142Y-51511904D01*
X73904761Y-51559523D01*
X73952380Y-51654761D01*
X73952380Y-51892857D01*
X73904761Y-51988095D01*
X73857142Y-52035714D01*
X63300595Y-51952380D02*
X63300595Y-52761904D01*
X63348214Y-52857142D01*
X63395833Y-52904761D01*
X63491071Y-52952380D01*
X63681547Y-52952380D01*
X63776785Y-52904761D01*
X63824404Y-52857142D01*
X63872023Y-52761904D01*
X63872023Y-51952380D01*
X64776785Y-52285714D02*
X64776785Y-52952380D01*
X64538690Y-51904761D02*
X64300595Y-52619047D01*
X64919642Y-52619047D01*
X59300595Y-51952380D02*
X59300595Y-52761904D01*
X59348214Y-52857142D01*
X59395833Y-52904761D01*
X59491071Y-52952380D01*
X59681547Y-52952380D01*
X59776785Y-52904761D01*
X59824404Y-52857142D01*
X59872023Y-52761904D01*
X59872023Y-51952380D01*
X60824404Y-51952380D02*
X60348214Y-51952380D01*
X60300595Y-52428571D01*
X60348214Y-52380952D01*
X60443452Y-52333333D01*
X60681547Y-52333333D01*
X60776785Y-52380952D01*
X60824404Y-52428571D01*
X60872023Y-52523809D01*
X60872023Y-52761904D01*
X60824404Y-52857142D01*
X60776785Y-52904761D01*
X60681547Y-52952380D01*
X60443452Y-52952380D01*
X60348214Y-52904761D01*
X60300595Y-52857142D01*
X49952380Y-52392857D02*
X49476190Y-52726190D01*
X49952380Y-52964285D02*
X48952380Y-52964285D01*
X48952380Y-52583333D01*
X49000000Y-52488095D01*
X49047619Y-52440476D01*
X49142857Y-52392857D01*
X49285714Y-52392857D01*
X49380952Y-52440476D01*
X49428571Y-52488095D01*
X49476190Y-52583333D01*
X49476190Y-52964285D01*
X49952380Y-51440476D02*
X49952380Y-52011904D01*
X49952380Y-51726190D02*
X48952380Y-51726190D01*
X49095238Y-51821428D01*
X49190476Y-51916666D01*
X49238095Y-52011904D01*
X48952380Y-51107142D02*
X48952380Y-50440476D01*
X49952380Y-50869047D01*
X69952380Y-52416666D02*
X69476190Y-52750000D01*
X69952380Y-52988095D02*
X68952380Y-52988095D01*
X68952380Y-52607142D01*
X69000000Y-52511904D01*
X69047619Y-52464285D01*
X69142857Y-52416666D01*
X69285714Y-52416666D01*
X69380952Y-52464285D01*
X69428571Y-52511904D01*
X69476190Y-52607142D01*
X69476190Y-52988095D01*
X68952380Y-52083333D02*
X68952380Y-51416666D01*
X69952380Y-51845238D01*
X62714285Y-73522380D02*
X63285714Y-73522380D01*
X63000000Y-74522380D02*
X63000000Y-73522380D01*
X63619047Y-74522380D02*
X63619047Y-73522380D01*
X63619047Y-73998571D02*
X64190476Y-73998571D01*
X64190476Y-74522380D02*
X64190476Y-73522380D01*
X65095238Y-73855714D02*
X65095238Y-74522380D01*
X64857142Y-73474761D02*
X64619047Y-74189047D01*
X65238095Y-74189047D01*
X50714285Y-69022380D02*
X51285714Y-69022380D01*
X51000000Y-70022380D02*
X51000000Y-69022380D01*
X51619047Y-70022380D02*
X51619047Y-69022380D01*
X51619047Y-69498571D02*
X52190476Y-69498571D01*
X52190476Y-70022380D02*
X52190476Y-69022380D01*
X52571428Y-69022380D02*
X53238095Y-69022380D01*
X52809523Y-70022380D01*
X77952380Y-52416666D02*
X77476190Y-52750000D01*
X77952380Y-52988095D02*
X76952380Y-52988095D01*
X76952380Y-52607142D01*
X77000000Y-52511904D01*
X77047619Y-52464285D01*
X77142857Y-52416666D01*
X77285714Y-52416666D01*
X77380952Y-52464285D01*
X77428571Y-52511904D01*
X77476190Y-52607142D01*
X77476190Y-52988095D01*
X76952380Y-52083333D02*
X76952380Y-51464285D01*
X77333333Y-51797619D01*
X77333333Y-51654761D01*
X77380952Y-51559523D01*
X77428571Y-51511904D01*
X77523809Y-51464285D01*
X77761904Y-51464285D01*
X77857142Y-51511904D01*
X77904761Y-51559523D01*
X77952380Y-51654761D01*
X77952380Y-51940476D01*
X77904761Y-52035714D01*
X77857142Y-52083333D01*
X39583333Y-53022380D02*
X39250000Y-52546190D01*
X39011904Y-53022380D02*
X39011904Y-52022380D01*
X39392857Y-52022380D01*
X39488095Y-52070000D01*
X39535714Y-52117619D01*
X39583333Y-52212857D01*
X39583333Y-52355714D01*
X39535714Y-52450952D01*
X39488095Y-52498571D01*
X39392857Y-52546190D01*
X39011904Y-52546190D01*
X40535714Y-53022380D02*
X39964285Y-53022380D01*
X40250000Y-53022380D02*
X40250000Y-52022380D01*
X40154761Y-52165238D01*
X40059523Y-52260476D01*
X39964285Y-52308095D01*
X55300595Y-51952380D02*
X55300595Y-52761904D01*
X55348214Y-52857142D01*
X55395833Y-52904761D01*
X55491071Y-52952380D01*
X55681547Y-52952380D01*
X55776785Y-52904761D01*
X55824404Y-52857142D01*
X55872023Y-52761904D01*
X55872023Y-51952380D01*
X56776785Y-51952380D02*
X56586309Y-51952380D01*
X56491071Y-52000000D01*
X56443452Y-52047619D01*
X56348214Y-52190476D01*
X56300595Y-52380952D01*
X56300595Y-52761904D01*
X56348214Y-52857142D01*
X56395833Y-52904761D01*
X56491071Y-52952380D01*
X56681547Y-52952380D01*
X56776785Y-52904761D01*
X56824404Y-52857142D01*
X56872023Y-52761904D01*
X56872023Y-52523809D01*
X56824404Y-52428571D01*
X56776785Y-52380952D01*
X56681547Y-52333333D01*
X56491071Y-52333333D01*
X56395833Y-52380952D01*
X56348214Y-52428571D01*
X56300595Y-52523809D01*
X42714285Y-69022380D02*
X43285714Y-69022380D01*
X43000000Y-70022380D02*
X43000000Y-69022380D01*
X43619047Y-70022380D02*
X43619047Y-69022380D01*
X43619047Y-69498571D02*
X44190476Y-69498571D01*
X44190476Y-70022380D02*
X44190476Y-69022380D01*
X44714285Y-70022380D02*
X44904761Y-70022380D01*
X45000000Y-69974761D01*
X45047619Y-69927142D01*
X45142857Y-69784285D01*
X45190476Y-69593809D01*
X45190476Y-69212857D01*
X45142857Y-69117619D01*
X45095238Y-69070000D01*
X45000000Y-69022380D01*
X44809523Y-69022380D01*
X44714285Y-69070000D01*
X44666666Y-69117619D01*
X44619047Y-69212857D01*
X44619047Y-69450952D01*
X44666666Y-69546190D01*
X44714285Y-69593809D01*
X44809523Y-69641428D01*
X45000000Y-69641428D01*
X45095238Y-69593809D01*
X45142857Y-69546190D01*
X45190476Y-69450952D01*
X74714285Y-69022380D02*
X75285714Y-69022380D01*
X75000000Y-70022380D02*
X75000000Y-69022380D01*
X75619047Y-70022380D02*
X75619047Y-69022380D01*
X75619047Y-69498571D02*
X76190476Y-69498571D01*
X76190476Y-70022380D02*
X76190476Y-69022380D01*
X77190476Y-70022380D02*
X76619047Y-70022380D01*
X76904761Y-70022380D02*
X76904761Y-69022380D01*
X76809523Y-69165238D01*
X76714285Y-69260476D01*
X76619047Y-69308095D01*
X53952380Y-52392857D02*
X53476190Y-52726190D01*
X53952380Y-52964285D02*
X52952380Y-52964285D01*
X52952380Y-52583333D01*
X53000000Y-52488095D01*
X53047619Y-52440476D01*
X53142857Y-52392857D01*
X53285714Y-52392857D01*
X53380952Y-52440476D01*
X53428571Y-52488095D01*
X53476190Y-52583333D01*
X53476190Y-52964285D01*
X53952380Y-51440476D02*
X53952380Y-52011904D01*
X53952380Y-51726190D02*
X52952380Y-51726190D01*
X53095238Y-51821428D01*
X53190476Y-51916666D01*
X53238095Y-52011904D01*
X52952380Y-50535714D02*
X52952380Y-51011904D01*
X53428571Y-51059523D01*
X53380952Y-51011904D01*
X53333333Y-50916666D01*
X53333333Y-50678571D01*
X53380952Y-50583333D01*
X53428571Y-50535714D01*
X53523809Y-50488095D01*
X53761904Y-50488095D01*
X53857142Y-50535714D01*
X53904761Y-50583333D01*
X53952380Y-50678571D01*
X53952380Y-50916666D01*
X53904761Y-51011904D01*
X53857142Y-51059523D01*
X67300595Y-51952380D02*
X67300595Y-52761904D01*
X67348214Y-52857142D01*
X67395833Y-52904761D01*
X67491071Y-52952380D01*
X67681547Y-52952380D01*
X67776785Y-52904761D01*
X67824404Y-52857142D01*
X67872023Y-52761904D01*
X67872023Y-51952380D01*
X68252976Y-51952380D02*
X68872023Y-51952380D01*
X68538690Y-52333333D01*
X68681547Y-52333333D01*
X68776785Y-52380952D01*
X68824404Y-52428571D01*
X68872023Y-52523809D01*
X68872023Y-52761904D01*
X68824404Y-52857142D01*
X68776785Y-52904761D01*
X68681547Y-52952380D01*
X68395833Y-52952380D01*
X68300595Y-52904761D01*
X68252976Y-52857142D01*
X61952380Y-52392857D02*
X61476190Y-52726190D01*
X61952380Y-52964285D02*
X60952380Y-52964285D01*
X60952380Y-52583333D01*
X61000000Y-52488095D01*
X61047619Y-52440476D01*
X61142857Y-52392857D01*
X61285714Y-52392857D01*
X61380952Y-52440476D01*
X61428571Y-52488095D01*
X61476190Y-52583333D01*
X61476190Y-52964285D01*
X61952380Y-51440476D02*
X61952380Y-52011904D01*
X61952380Y-51726190D02*
X60952380Y-51726190D01*
X61095238Y-51821428D01*
X61190476Y-51916666D01*
X61238095Y-52011904D01*
X61952380Y-50488095D02*
X61952380Y-51059523D01*
X61952380Y-50773809D02*
X60952380Y-50773809D01*
X61095238Y-50869047D01*
X61190476Y-50964285D01*
X61238095Y-51059523D01*
X59202380Y-52392857D02*
X58726190Y-52726190D01*
X59202380Y-52964285D02*
X58202380Y-52964285D01*
X58202380Y-52583333D01*
X58250000Y-52488095D01*
X58297619Y-52440476D01*
X58392857Y-52392857D01*
X58535714Y-52392857D01*
X58630952Y-52440476D01*
X58678571Y-52488095D01*
X58726190Y-52583333D01*
X58726190Y-52964285D01*
X59202380Y-51440476D02*
X59202380Y-52011904D01*
X59202380Y-51726190D02*
X58202380Y-51726190D01*
X58345238Y-51821428D01*
X58440476Y-51916666D01*
X58488095Y-52011904D01*
X58202380Y-50821428D02*
X58202380Y-50726190D01*
X58250000Y-50630952D01*
X58297619Y-50583333D01*
X58392857Y-50535714D01*
X58583333Y-50488095D01*
X58821428Y-50488095D01*
X59011904Y-50535714D01*
X59107142Y-50583333D01*
X59154761Y-50630952D01*
X59202380Y-50726190D01*
X59202380Y-50821428D01*
X59154761Y-50916666D01*
X59107142Y-50964285D01*
X59011904Y-51011904D01*
X58821428Y-51059523D01*
X58583333Y-51059523D01*
X58392857Y-51011904D01*
X58297619Y-50964285D01*
X58250000Y-50916666D01*
X58202380Y-50821428D01*
X51666666Y-66782380D02*
X51666666Y-67496666D01*
X51619047Y-67639523D01*
X51523809Y-67734761D01*
X51380952Y-67782380D01*
X51285714Y-67782380D01*
X52285714Y-67210952D02*
X52190476Y-67163333D01*
X52142857Y-67115714D01*
X52095238Y-67020476D01*
X52095238Y-66972857D01*
X52142857Y-66877619D01*
X52190476Y-66830000D01*
X52285714Y-66782380D01*
X52476190Y-66782380D01*
X52571428Y-66830000D01*
X52619047Y-66877619D01*
X52666666Y-66972857D01*
X52666666Y-67020476D01*
X52619047Y-67115714D01*
X52571428Y-67163333D01*
X52476190Y-67210952D01*
X52285714Y-67210952D01*
X52190476Y-67258571D01*
X52142857Y-67306190D01*
X52095238Y-67401428D01*
X52095238Y-67591904D01*
X52142857Y-67687142D01*
X52190476Y-67734761D01*
X52285714Y-67782380D01*
X52476190Y-67782380D01*
X52571428Y-67734761D01*
X52619047Y-67687142D01*
X52666666Y-67591904D01*
X52666666Y-67401428D01*
X52619047Y-67306190D01*
X52571428Y-67258571D01*
X52476190Y-67210952D01*
D11*
X57522500Y-58737258D02*
X57522500Y-58262742D01*
X56477500Y-58737258D02*
X56477500Y-58262742D01*
X49330000Y-63730000D02*
X46670000Y-63730000D01*
X49330000Y-66330000D02*
X48000000Y-66330000D01*
X46670000Y-63730000D02*
X46670000Y-61130000D01*
X49330000Y-65000000D02*
X49330000Y-66330000D01*
X49330000Y-63730000D02*
X49330000Y-61130000D01*
X49330000Y-61130000D02*
X46670000Y-61130000D01*
X67522500Y-58262742D02*
X67522500Y-58737258D01*
X66477500Y-58262742D02*
X66477500Y-58737258D01*
X62670000Y-63730000D02*
X62670000Y-61130000D01*
X65330000Y-63730000D02*
X62670000Y-63730000D01*
X65330000Y-65000000D02*
X65330000Y-66330000D01*
X65330000Y-63730000D02*
X65330000Y-61130000D01*
X65330000Y-66330000D02*
X64000000Y-66330000D01*
X65330000Y-61130000D02*
X62670000Y-61130000D01*
X67762742Y-71522500D02*
X68237258Y-71522500D01*
X67762742Y-70477500D02*
X68237258Y-70477500D01*
X59762742Y-71522500D02*
X60237258Y-71522500D01*
X59762742Y-70477500D02*
X60237258Y-70477500D01*
X64477500Y-58737258D02*
X64477500Y-58262742D01*
X65522500Y-58737258D02*
X65522500Y-58262742D01*
X47522500Y-58262742D02*
X47522500Y-58737258D01*
X46477500Y-58262742D02*
X46477500Y-58737258D01*
X45330000Y-61130000D02*
X42670000Y-61130000D01*
X42670000Y-63730000D02*
X42670000Y-61130000D01*
X45330000Y-63730000D02*
X42670000Y-63730000D01*
X45330000Y-66330000D02*
X44000000Y-66330000D01*
X45330000Y-63730000D02*
X45330000Y-61130000D01*
X45330000Y-65000000D02*
X45330000Y-66330000D01*
X70477500Y-58262742D02*
X70477500Y-58737258D01*
X71522500Y-58262742D02*
X71522500Y-58737258D01*
X39480000Y-58134420D02*
X39480000Y-58415580D01*
X40500000Y-58134420D02*
X40500000Y-58415580D01*
X42477500Y-58262742D02*
X42477500Y-58737258D01*
X43522500Y-58262742D02*
X43522500Y-58737258D01*
X44477500Y-58737258D02*
X44477500Y-58262742D01*
X45522500Y-58737258D02*
X45522500Y-58262742D01*
X57330000Y-63730000D02*
X57330000Y-61130000D01*
X57330000Y-61130000D02*
X54670000Y-61130000D01*
X57330000Y-63730000D02*
X54670000Y-63730000D01*
X54670000Y-63730000D02*
X54670000Y-61130000D01*
X57330000Y-65000000D02*
X57330000Y-66330000D01*
X57330000Y-66330000D02*
X56000000Y-66330000D01*
X37080000Y-60605000D02*
X35750000Y-60605000D01*
X37080000Y-59275000D02*
X37080000Y-60605000D01*
X34420000Y-58005000D02*
X34420000Y-52865000D01*
X37080000Y-58005000D02*
X37080000Y-52865000D01*
X37080000Y-52865000D02*
X34420000Y-52865000D01*
X37080000Y-58005000D02*
X34420000Y-58005000D01*
X75522500Y-58262742D02*
X75522500Y-58737258D01*
X74477500Y-58262742D02*
X74477500Y-58737258D01*
X48062500Y-56360000D02*
X47412500Y-56360000D01*
X48062500Y-53240000D02*
X48712500Y-53240000D01*
X48062500Y-56360000D02*
X49737500Y-56360000D01*
X48062500Y-53240000D02*
X47412500Y-53240000D01*
X76062500Y-53240000D02*
X75412500Y-53240000D01*
X76062500Y-56360000D02*
X77737500Y-56360000D01*
X76062500Y-53240000D02*
X76712500Y-53240000D01*
X76062500Y-56360000D02*
X75412500Y-56360000D01*
X47762742Y-74977500D02*
X48237258Y-74977500D01*
X47762742Y-76022500D02*
X48237258Y-76022500D01*
X62477500Y-58262742D02*
X62477500Y-58737258D01*
X63522500Y-58262742D02*
X63522500Y-58737258D01*
X51522500Y-58262742D02*
X51522500Y-58737258D01*
X50477500Y-58262742D02*
X50477500Y-58737258D01*
X73330000Y-66330000D02*
X72000000Y-66330000D01*
X70670000Y-63730000D02*
X70670000Y-61130000D01*
X73330000Y-63730000D02*
X70670000Y-63730000D01*
X73330000Y-63730000D02*
X73330000Y-61130000D01*
X73330000Y-61130000D02*
X70670000Y-61130000D01*
X73330000Y-65000000D02*
X73330000Y-66330000D01*
X52062500Y-56360000D02*
X51412500Y-56360000D01*
X52062500Y-53240000D02*
X52712500Y-53240000D01*
X52062500Y-56360000D02*
X53737500Y-56360000D01*
X52062500Y-53240000D02*
X51412500Y-53240000D01*
X66670000Y-63730000D02*
X66670000Y-61130000D01*
X69330000Y-66330000D02*
X68000000Y-66330000D01*
X69330000Y-61130000D02*
X66670000Y-61130000D01*
X69330000Y-63730000D02*
X66670000Y-63730000D01*
X69330000Y-63730000D02*
X69330000Y-61130000D01*
X69330000Y-65000000D02*
X69330000Y-66330000D01*
X61330000Y-65000000D02*
X61330000Y-66330000D01*
X61330000Y-63730000D02*
X61330000Y-61130000D01*
X61330000Y-61130000D02*
X58670000Y-61130000D01*
X61330000Y-66330000D02*
X60000000Y-66330000D01*
X61330000Y-63730000D02*
X58670000Y-63730000D01*
X58670000Y-63730000D02*
X58670000Y-61130000D01*
X54477500Y-58262742D02*
X54477500Y-58737258D01*
X55522500Y-58262742D02*
X55522500Y-58737258D01*
X55762742Y-74977500D02*
X56237258Y-74977500D01*
X55762742Y-76022500D02*
X56237258Y-76022500D01*
X44062500Y-53240000D02*
X44712500Y-53240000D01*
X44062500Y-56360000D02*
X45737500Y-56360000D01*
X44062500Y-53240000D02*
X43412500Y-53240000D01*
X44062500Y-56360000D02*
X43412500Y-56360000D01*
X72062500Y-56360000D02*
X73737500Y-56360000D01*
X72062500Y-56360000D02*
X71412500Y-56360000D01*
X72062500Y-53240000D02*
X72712500Y-53240000D01*
X72062500Y-53240000D02*
X71412500Y-53240000D01*
X71762742Y-74977500D02*
X72237258Y-74977500D01*
X71762742Y-76022500D02*
X72237258Y-76022500D01*
X77330000Y-61130000D02*
X74670000Y-61130000D01*
X77330000Y-66330000D02*
X76000000Y-66330000D01*
X77330000Y-63730000D02*
X74670000Y-63730000D01*
X77330000Y-63730000D02*
X77330000Y-61130000D01*
X74670000Y-63730000D02*
X74670000Y-61130000D01*
X77330000Y-65000000D02*
X77330000Y-66330000D01*
X72477500Y-58737258D02*
X72477500Y-58262742D01*
X73522500Y-58737258D02*
X73522500Y-58262742D01*
X64062500Y-56360000D02*
X65737500Y-56360000D01*
X64062500Y-53240000D02*
X64712500Y-53240000D01*
X64062500Y-53240000D02*
X63412500Y-53240000D01*
X64062500Y-56360000D02*
X63412500Y-56360000D01*
X60062500Y-56360000D02*
X59412500Y-56360000D01*
X60062500Y-53240000D02*
X60712500Y-53240000D01*
X60062500Y-53240000D02*
X59412500Y-53240000D01*
X60062500Y-56360000D02*
X61737500Y-56360000D01*
X48477500Y-58737258D02*
X48477500Y-58262742D01*
X49522500Y-58737258D02*
X49522500Y-58262742D01*
X69522500Y-58737258D02*
X69522500Y-58262742D01*
X68477500Y-58737258D02*
X68477500Y-58262742D01*
X63762742Y-76022500D02*
X64237258Y-76022500D01*
X63762742Y-74977500D02*
X64237258Y-74977500D01*
X51762742Y-71522500D02*
X52237258Y-71522500D01*
X51762742Y-70477500D02*
X52237258Y-70477500D01*
X77522500Y-58737258D02*
X77522500Y-58262742D01*
X76477500Y-58737258D02*
X76477500Y-58262742D01*
X39512742Y-54522500D02*
X39987258Y-54522500D01*
X39512742Y-53477500D02*
X39987258Y-53477500D01*
X56062500Y-56360000D02*
X57737500Y-56360000D01*
X56062500Y-53240000D02*
X56712500Y-53240000D01*
X56062500Y-56360000D02*
X55412500Y-56360000D01*
X56062500Y-53240000D02*
X55412500Y-53240000D01*
X43762742Y-71522500D02*
X44237258Y-71522500D01*
X43762742Y-70477500D02*
X44237258Y-70477500D01*
X75762742Y-70477500D02*
X76237258Y-70477500D01*
X75762742Y-71522500D02*
X76237258Y-71522500D01*
X52477500Y-58737258D02*
X52477500Y-58262742D01*
X53522500Y-58737258D02*
X53522500Y-58262742D01*
X68062500Y-53240000D02*
X67412500Y-53240000D01*
X68062500Y-56360000D02*
X67412500Y-56360000D01*
X68062500Y-56360000D02*
X69737500Y-56360000D01*
X68062500Y-53240000D02*
X68712500Y-53240000D01*
X60477500Y-58737258D02*
X60477500Y-58262742D01*
X61522500Y-58737258D02*
X61522500Y-58262742D01*
X59522500Y-58262742D02*
X59522500Y-58737258D01*
X58477500Y-58262742D02*
X58477500Y-58737258D01*
X53330000Y-63730000D02*
X53330000Y-61130000D01*
X53330000Y-65000000D02*
X53330000Y-66330000D01*
X53330000Y-63730000D02*
X50670000Y-63730000D01*
X53330000Y-66330000D02*
X52000000Y-66330000D01*
X53330000Y-61130000D02*
X50670000Y-61130000D01*
X50670000Y-63730000D02*
X50670000Y-61130000D01*
%LPC*%
D12*
X57000000Y-59325000D03*
X57000000Y-57675000D03*
D13*
X48000000Y-65000000D03*
D14*
X48000000Y-62460000D03*
D15*
X67000000Y-57675000D03*
X67000000Y-59325000D03*
D13*
X64000000Y-65000000D03*
D14*
X64000000Y-62460000D03*
D16*
X67175000Y-71000000D03*
X68825000Y-71000000D03*
X59175000Y-71000000D03*
X60825000Y-71000000D03*
D12*
X65000000Y-59325000D03*
X65000000Y-57675000D03*
D15*
X47000000Y-57675000D03*
X47000000Y-59325000D03*
D13*
X44000000Y-65000000D03*
D14*
X44000000Y-62460000D03*
D15*
X71000000Y-57675000D03*
X71000000Y-59325000D03*
D17*
X39990000Y-57500000D03*
X39990000Y-59050000D03*
D15*
X43000000Y-57675000D03*
X43000000Y-59325000D03*
D12*
X45000000Y-59325000D03*
X45000000Y-57675000D03*
D13*
X56000000Y-65000000D03*
D14*
X56000000Y-62460000D03*
D13*
X35750000Y-59275000D03*
D14*
X35750000Y-56735000D03*
X35750000Y-54195000D03*
D15*
X75000000Y-57675000D03*
X75000000Y-59325000D03*
D18*
X49000000Y-55750000D03*
X49000000Y-53850000D03*
X47125000Y-54800000D03*
X77000000Y-55750000D03*
X77000000Y-53850000D03*
X75125000Y-54800000D03*
D16*
X47175000Y-75500000D03*
X48825000Y-75500000D03*
D15*
X63000000Y-57675000D03*
X63000000Y-59325000D03*
X51000000Y-57675000D03*
X51000000Y-59325000D03*
D13*
X72000000Y-65000000D03*
D14*
X72000000Y-62460000D03*
D18*
X53000000Y-55750000D03*
X53000000Y-53850000D03*
X51125000Y-54800000D03*
D13*
X68000000Y-65000000D03*
D14*
X68000000Y-62460000D03*
D13*
X60000000Y-65000000D03*
D14*
X60000000Y-62460000D03*
D15*
X55000000Y-57675000D03*
X55000000Y-59325000D03*
D16*
X55175000Y-75500000D03*
X56825000Y-75500000D03*
D18*
X45000000Y-55750000D03*
X45000000Y-53850000D03*
X43125000Y-54800000D03*
X73000000Y-55750000D03*
X73000000Y-53850000D03*
X71125000Y-54800000D03*
D16*
X71175000Y-75500000D03*
X72825000Y-75500000D03*
D13*
X76000000Y-65000000D03*
D14*
X76000000Y-62460000D03*
D12*
X73000000Y-59325000D03*
X73000000Y-57675000D03*
D18*
X65000000Y-55750000D03*
X65000000Y-53850000D03*
X63125000Y-54800000D03*
X61000000Y-55750000D03*
X61000000Y-53850000D03*
X59125000Y-54800000D03*
D12*
X49000000Y-59325000D03*
X49000000Y-57675000D03*
X69000000Y-59325000D03*
X69000000Y-57675000D03*
D16*
X63175000Y-75500000D03*
X64825000Y-75500000D03*
X51175000Y-71000000D03*
X52825000Y-71000000D03*
D12*
X77000000Y-59325000D03*
X77000000Y-57675000D03*
D16*
X38925000Y-54000000D03*
X40575000Y-54000000D03*
D18*
X57000000Y-55750000D03*
X57000000Y-53850000D03*
X55125000Y-54800000D03*
D16*
X43175000Y-71000000D03*
X44825000Y-71000000D03*
X75175000Y-71000000D03*
X76825000Y-71000000D03*
D12*
X53000000Y-59325000D03*
X53000000Y-57675000D03*
D18*
X69000000Y-55750000D03*
X69000000Y-53850000D03*
X67125000Y-54800000D03*
D12*
X61000000Y-59325000D03*
X61000000Y-57675000D03*
D15*
X59000000Y-57675000D03*
X59000000Y-59325000D03*
D13*
X52000000Y-65000000D03*
D14*
X52000000Y-62460000D03*
M02*
