%TF.GenerationSoftware,KiCad,Pcbnew,(6.0.2)*%
%TF.CreationDate,2022-02-22T17:34:29+01:00*%
%TF.ProjectId,temp_hotspot_detector,74656d70-5f68-46f7-9473-706f745f6465,rev?*%
%TF.SameCoordinates,Original*%
%TF.FileFunction,Copper,L2,Bot*%
%TF.FilePolarity,Positive*%
%FSLAX46Y46*%
G04 Gerber Fmt 4.6, Leading zero omitted, Abs format (unit mm)*
G04 Created by KiCad (PCBNEW (6.0.2)) date 2022-02-22 17:34:29*
%MOMM*%
%LPD*%
G01*
G04 APERTURE LIST*
%TA.AperFunction,ComponentPad*%
%ADD10R,1.700000X1.700000*%
%TD*%
%TA.AperFunction,ComponentPad*%
%ADD11O,1.700000X1.700000*%
%TD*%
%TA.AperFunction,ViaPad*%
%ADD12C,0.800000*%
%TD*%
%TA.AperFunction,Conductor*%
%ADD13C,0.250000*%
%TD*%
G04 APERTURE END LIST*
D10*
X48000000Y-65000000D03*
D11*
X48000000Y-62460000D03*
D10*
X64000000Y-65000000D03*
D11*
X64000000Y-62460000D03*
D10*
X44000000Y-65000000D03*
D11*
X44000000Y-62460000D03*
D10*
X56000000Y-65000000D03*
D11*
X56000000Y-62460000D03*
D10*
X35750000Y-59275000D03*
D11*
X35750000Y-56735000D03*
X35750000Y-54195000D03*
D10*
X72000000Y-65000000D03*
D11*
X72000000Y-62460000D03*
D10*
X68000000Y-65000000D03*
D11*
X68000000Y-62460000D03*
D10*
X60000000Y-65000000D03*
D11*
X60000000Y-62460000D03*
D10*
X76000000Y-65000000D03*
D11*
X76000000Y-62460000D03*
D10*
X52000000Y-65000000D03*
D11*
X52000000Y-62460000D03*
D12*
X55050000Y-53875000D03*
X71000000Y-56525000D03*
X43000000Y-56500000D03*
X55000000Y-56525000D03*
X59000000Y-56525000D03*
X63000000Y-56525000D03*
X47000000Y-56525000D03*
X63050000Y-53875000D03*
X75000000Y-56525000D03*
X51050000Y-53875000D03*
X43050000Y-53850000D03*
X75050000Y-53875000D03*
X67000000Y-56525000D03*
X51000000Y-56525000D03*
X67050000Y-53875000D03*
X71050000Y-53875000D03*
X59050000Y-53875000D03*
X47050000Y-53875000D03*
X50000000Y-60200000D03*
X72000000Y-57000000D03*
X56000000Y-57000000D03*
X60000000Y-57000000D03*
X68000000Y-57000000D03*
X46000000Y-60200000D03*
X62000000Y-60200000D03*
X48000000Y-57000000D03*
X78000000Y-60200000D03*
X74000000Y-60200000D03*
X66000000Y-60200000D03*
X54000000Y-60200000D03*
X76000000Y-57000000D03*
X52000000Y-57000000D03*
X64000000Y-57000000D03*
X70000000Y-60200000D03*
X44000000Y-57000000D03*
X58000000Y-60200000D03*
D13*
X63000000Y-56525000D02*
X63000000Y-54025000D01*
X51000000Y-56525000D02*
X51000000Y-54025000D01*
X43050000Y-53950000D02*
X43050000Y-53850000D01*
X71000000Y-56525000D02*
X71000000Y-54025000D01*
X55000000Y-56525000D02*
X55000000Y-54025000D01*
X75000000Y-56525000D02*
X75000000Y-54025000D01*
X47000000Y-56525000D02*
X47000000Y-54025000D01*
X67000000Y-56525000D02*
X67000000Y-54025000D01*
X43000000Y-54000000D02*
X43050000Y-53950000D01*
X59000000Y-56525000D02*
X59000000Y-54025000D01*
X43000000Y-56500000D02*
X43000000Y-54000000D01*
X74000000Y-60200000D02*
X74000000Y-59000000D01*
X66000000Y-59000000D02*
X64000000Y-57000000D01*
X50000000Y-60200000D02*
X50000000Y-59000000D01*
X62000000Y-60200000D02*
X62000000Y-59000000D01*
X54000000Y-60200000D02*
X54000000Y-59000000D01*
X50000000Y-59000000D02*
X48000000Y-57000000D01*
X62000000Y-59000000D02*
X60000000Y-57000000D01*
X46000000Y-60200000D02*
X46000000Y-59000000D01*
X46000000Y-59000000D02*
X44000000Y-57000000D01*
X70000000Y-59000000D02*
X68000000Y-57000000D01*
X78000000Y-60200000D02*
X78000000Y-59000000D01*
X58000000Y-60200000D02*
X58000000Y-59000000D01*
X66000000Y-60200000D02*
X66000000Y-59000000D01*
X54000000Y-59000000D02*
X52000000Y-57000000D01*
X58000000Y-59000000D02*
X56000000Y-57000000D01*
X74000000Y-59000000D02*
X72000000Y-57000000D01*
X70000000Y-60200000D02*
X70000000Y-59000000D01*
X78000000Y-59000000D02*
X76000000Y-57000000D01*
M02*
