M48
; DRILL file {KiCad (6.0.2)} date Tue 22 Feb 2022 17:34:31 CET
; FORMAT={-:-/ absolute / metric / decimal}
; #@! TF.CreationDate,2022-02-22T17:34:31+01:00
; #@! TF.GenerationSoftware,Kicad,Pcbnew,(6.0.2)
; #@! TF.FileFunction,Plated,1,2,PTH
FMAT,2
METRIC
; #@! TA.AperFunction,Plated,PTH,ViaDrill
T1C0.400
; #@! TA.AperFunction,Plated,PTH,ComponentDrill
T2C1.000
%
G90
G05
T1
X43.0Y-56.5
X43.05Y-53.85
X44.0Y-57.0
X46.0Y-60.2
X47.0Y-56.525
X47.05Y-53.875
X48.0Y-57.0
X50.0Y-60.2
X51.0Y-56.525
X51.05Y-53.875
X52.0Y-57.0
X54.0Y-60.2
X55.0Y-56.525
X55.05Y-53.875
X56.0Y-57.0
X58.0Y-60.2
X59.0Y-56.525
X59.05Y-53.875
X60.0Y-57.0
X62.0Y-60.2
X63.0Y-56.525
X63.05Y-53.875
X64.0Y-57.0
X66.0Y-60.2
X67.0Y-56.525
X67.05Y-53.875
X68.0Y-57.0
X70.0Y-60.2
X71.0Y-56.525
X71.05Y-53.875
X72.0Y-57.0
X74.0Y-60.2
X75.0Y-56.525
X75.05Y-53.875
X76.0Y-57.0
X78.0Y-60.2
T2
X35.75Y-54.195
X35.75Y-56.735
X35.75Y-59.275
X44.0Y-62.46
X44.0Y-65.0
X48.0Y-62.46
X48.0Y-65.0
X52.0Y-62.46
X52.0Y-65.0
X56.0Y-62.46
X56.0Y-65.0
X60.0Y-62.46
X60.0Y-65.0
X64.0Y-62.46
X64.0Y-65.0
X68.0Y-62.46
X68.0Y-65.0
X72.0Y-62.46
X72.0Y-65.0
X76.0Y-62.46
X76.0Y-65.0
T0
M30
