%TF.GenerationSoftware,KiCad,Pcbnew,(6.0.2)*%
%TF.CreationDate,2022-02-22T17:34:29+01:00*%
%TF.ProjectId,temp_hotspot_detector,74656d70-5f68-46f7-9473-706f745f6465,rev?*%
%TF.SameCoordinates,Original*%
%TF.FileFunction,Soldermask,Top*%
%TF.FilePolarity,Negative*%
%FSLAX46Y46*%
G04 Gerber Fmt 4.6, Leading zero omitted, Abs format (unit mm)*
G04 Created by KiCad (PCBNEW (6.0.2)) date 2022-02-22 17:34:29*
%MOMM*%
%LPD*%
G01*
G04 APERTURE LIST*
G04 Aperture macros list*
%AMRoundRect*
0 Rectangle with rounded corners*
0 $1 Rounding radius*
0 $2 $3 $4 $5 $6 $7 $8 $9 X,Y pos of 4 corners*
0 Add a 4 corners polygon primitive as box body*
4,1,4,$2,$3,$4,$5,$6,$7,$8,$9,$2,$3,0*
0 Add four circle primitives for the rounded corners*
1,1,$1+$1,$2,$3*
1,1,$1+$1,$4,$5*
1,1,$1+$1,$6,$7*
1,1,$1+$1,$8,$9*
0 Add four rect primitives between the rounded corners*
20,1,$1+$1,$2,$3,$4,$5,0*
20,1,$1+$1,$4,$5,$6,$7,0*
20,1,$1+$1,$6,$7,$8,$9,0*
20,1,$1+$1,$8,$9,$2,$3,0*%
G04 Aperture macros list end*
%ADD10RoundRect,0.200000X0.275000X-0.200000X0.275000X0.200000X-0.275000X0.200000X-0.275000X-0.200000X0*%
%ADD11R,1.700000X1.700000*%
%ADD12O,1.700000X1.700000*%
%ADD13RoundRect,0.200000X-0.275000X0.200000X-0.275000X-0.200000X0.275000X-0.200000X0.275000X0.200000X0*%
%ADD14RoundRect,0.200000X-0.200000X-0.275000X0.200000X-0.275000X0.200000X0.275000X-0.200000X0.275000X0*%
%ADD15RoundRect,0.225000X-0.250000X0.225000X-0.250000X-0.225000X0.250000X-0.225000X0.250000X0.225000X0*%
%ADD16RoundRect,0.150000X0.587500X0.150000X-0.587500X0.150000X-0.587500X-0.150000X0.587500X-0.150000X0*%
G04 APERTURE END LIST*
D10*
X57000000Y-59325000D03*
X57000000Y-57675000D03*
D11*
X48000000Y-65000000D03*
D12*
X48000000Y-62460000D03*
D13*
X67000000Y-57675000D03*
X67000000Y-59325000D03*
D11*
X64000000Y-65000000D03*
D12*
X64000000Y-62460000D03*
D14*
X67175000Y-71000000D03*
X68825000Y-71000000D03*
X59175000Y-71000000D03*
X60825000Y-71000000D03*
D10*
X65000000Y-59325000D03*
X65000000Y-57675000D03*
D13*
X47000000Y-57675000D03*
X47000000Y-59325000D03*
D11*
X44000000Y-65000000D03*
D12*
X44000000Y-62460000D03*
D13*
X71000000Y-57675000D03*
X71000000Y-59325000D03*
D15*
X39990000Y-57500000D03*
X39990000Y-59050000D03*
D13*
X43000000Y-57675000D03*
X43000000Y-59325000D03*
D10*
X45000000Y-59325000D03*
X45000000Y-57675000D03*
D11*
X56000000Y-65000000D03*
D12*
X56000000Y-62460000D03*
D11*
X35750000Y-59275000D03*
D12*
X35750000Y-56735000D03*
X35750000Y-54195000D03*
D13*
X75000000Y-57675000D03*
X75000000Y-59325000D03*
D16*
X49000000Y-55750000D03*
X49000000Y-53850000D03*
X47125000Y-54800000D03*
X77000000Y-55750000D03*
X77000000Y-53850000D03*
X75125000Y-54800000D03*
D14*
X47175000Y-75500000D03*
X48825000Y-75500000D03*
D13*
X63000000Y-57675000D03*
X63000000Y-59325000D03*
X51000000Y-57675000D03*
X51000000Y-59325000D03*
D11*
X72000000Y-65000000D03*
D12*
X72000000Y-62460000D03*
D16*
X53000000Y-55750000D03*
X53000000Y-53850000D03*
X51125000Y-54800000D03*
D11*
X68000000Y-65000000D03*
D12*
X68000000Y-62460000D03*
D11*
X60000000Y-65000000D03*
D12*
X60000000Y-62460000D03*
D13*
X55000000Y-57675000D03*
X55000000Y-59325000D03*
D14*
X55175000Y-75500000D03*
X56825000Y-75500000D03*
D16*
X45000000Y-55750000D03*
X45000000Y-53850000D03*
X43125000Y-54800000D03*
X73000000Y-55750000D03*
X73000000Y-53850000D03*
X71125000Y-54800000D03*
D14*
X71175000Y-75500000D03*
X72825000Y-75500000D03*
D11*
X76000000Y-65000000D03*
D12*
X76000000Y-62460000D03*
D10*
X73000000Y-59325000D03*
X73000000Y-57675000D03*
D16*
X65000000Y-55750000D03*
X65000000Y-53850000D03*
X63125000Y-54800000D03*
X61000000Y-55750000D03*
X61000000Y-53850000D03*
X59125000Y-54800000D03*
D10*
X49000000Y-59325000D03*
X49000000Y-57675000D03*
X69000000Y-59325000D03*
X69000000Y-57675000D03*
D14*
X63175000Y-75500000D03*
X64825000Y-75500000D03*
X51175000Y-71000000D03*
X52825000Y-71000000D03*
D10*
X77000000Y-59325000D03*
X77000000Y-57675000D03*
D14*
X38925000Y-54000000D03*
X40575000Y-54000000D03*
D16*
X57000000Y-55750000D03*
X57000000Y-53850000D03*
X55125000Y-54800000D03*
D14*
X43175000Y-71000000D03*
X44825000Y-71000000D03*
X75175000Y-71000000D03*
X76825000Y-71000000D03*
D10*
X53000000Y-59325000D03*
X53000000Y-57675000D03*
D16*
X69000000Y-55750000D03*
X69000000Y-53850000D03*
X67125000Y-54800000D03*
D10*
X61000000Y-59325000D03*
X61000000Y-57675000D03*
D13*
X59000000Y-57675000D03*
X59000000Y-59325000D03*
D11*
X52000000Y-65000000D03*
D12*
X52000000Y-62460000D03*
M02*
