%TF.GenerationSoftware,KiCad,Pcbnew,(6.0.2)*%
%TF.CreationDate,2022-02-22T17:34:28+01:00*%
%TF.ProjectId,temp_hotspot_detector,74656d70-5f68-46f7-9473-706f745f6465,rev?*%
%TF.SameCoordinates,Original*%
%TF.FileFunction,Copper,L1,Top*%
%TF.FilePolarity,Positive*%
%FSLAX46Y46*%
G04 Gerber Fmt 4.6, Leading zero omitted, Abs format (unit mm)*
G04 Created by KiCad (PCBNEW (6.0.2)) date 2022-02-22 17:34:28*
%MOMM*%
%LPD*%
G01*
G04 APERTURE LIST*
G04 Aperture macros list*
%AMRoundRect*
0 Rectangle with rounded corners*
0 $1 Rounding radius*
0 $2 $3 $4 $5 $6 $7 $8 $9 X,Y pos of 4 corners*
0 Add a 4 corners polygon primitive as box body*
4,1,4,$2,$3,$4,$5,$6,$7,$8,$9,$2,$3,0*
0 Add four circle primitives for the rounded corners*
1,1,$1+$1,$2,$3*
1,1,$1+$1,$4,$5*
1,1,$1+$1,$6,$7*
1,1,$1+$1,$8,$9*
0 Add four rect primitives between the rounded corners*
20,1,$1+$1,$2,$3,$4,$5,0*
20,1,$1+$1,$4,$5,$6,$7,0*
20,1,$1+$1,$6,$7,$8,$9,0*
20,1,$1+$1,$8,$9,$2,$3,0*%
G04 Aperture macros list end*
%TA.AperFunction,SMDPad,CuDef*%
%ADD10RoundRect,0.200000X0.275000X-0.200000X0.275000X0.200000X-0.275000X0.200000X-0.275000X-0.200000X0*%
%TD*%
%TA.AperFunction,ComponentPad*%
%ADD11R,1.700000X1.700000*%
%TD*%
%TA.AperFunction,ComponentPad*%
%ADD12O,1.700000X1.700000*%
%TD*%
%TA.AperFunction,SMDPad,CuDef*%
%ADD13RoundRect,0.200000X-0.275000X0.200000X-0.275000X-0.200000X0.275000X-0.200000X0.275000X0.200000X0*%
%TD*%
%TA.AperFunction,SMDPad,CuDef*%
%ADD14RoundRect,0.200000X-0.200000X-0.275000X0.200000X-0.275000X0.200000X0.275000X-0.200000X0.275000X0*%
%TD*%
%TA.AperFunction,SMDPad,CuDef*%
%ADD15RoundRect,0.225000X-0.250000X0.225000X-0.250000X-0.225000X0.250000X-0.225000X0.250000X0.225000X0*%
%TD*%
%TA.AperFunction,SMDPad,CuDef*%
%ADD16RoundRect,0.150000X0.587500X0.150000X-0.587500X0.150000X-0.587500X-0.150000X0.587500X-0.150000X0*%
%TD*%
%TA.AperFunction,ViaPad*%
%ADD17C,0.800000*%
%TD*%
%TA.AperFunction,Conductor*%
%ADD18C,0.250000*%
%TD*%
G04 APERTURE END LIST*
D10*
X57000000Y-59325000D03*
X57000000Y-57675000D03*
D11*
X48000000Y-65000000D03*
D12*
X48000000Y-62460000D03*
D13*
X67000000Y-57675000D03*
X67000000Y-59325000D03*
D11*
X64000000Y-65000000D03*
D12*
X64000000Y-62460000D03*
D14*
X67175000Y-71000000D03*
X68825000Y-71000000D03*
X59175000Y-71000000D03*
X60825000Y-71000000D03*
D10*
X65000000Y-59325000D03*
X65000000Y-57675000D03*
D13*
X47000000Y-57675000D03*
X47000000Y-59325000D03*
D11*
X44000000Y-65000000D03*
D12*
X44000000Y-62460000D03*
D13*
X71000000Y-57675000D03*
X71000000Y-59325000D03*
D15*
X39990000Y-57500000D03*
X39990000Y-59050000D03*
D13*
X43000000Y-57675000D03*
X43000000Y-59325000D03*
D10*
X45000000Y-59325000D03*
X45000000Y-57675000D03*
D11*
X56000000Y-65000000D03*
D12*
X56000000Y-62460000D03*
D11*
X35750000Y-59275000D03*
D12*
X35750000Y-56735000D03*
X35750000Y-54195000D03*
D13*
X75000000Y-57675000D03*
X75000000Y-59325000D03*
D16*
X49000000Y-55750000D03*
X49000000Y-53850000D03*
X47125000Y-54800000D03*
X77000000Y-55750000D03*
X77000000Y-53850000D03*
X75125000Y-54800000D03*
D14*
X47175000Y-75500000D03*
X48825000Y-75500000D03*
D13*
X63000000Y-57675000D03*
X63000000Y-59325000D03*
X51000000Y-57675000D03*
X51000000Y-59325000D03*
D11*
X72000000Y-65000000D03*
D12*
X72000000Y-62460000D03*
D16*
X53000000Y-55750000D03*
X53000000Y-53850000D03*
X51125000Y-54800000D03*
D11*
X68000000Y-65000000D03*
D12*
X68000000Y-62460000D03*
D11*
X60000000Y-65000000D03*
D12*
X60000000Y-62460000D03*
D13*
X55000000Y-57675000D03*
X55000000Y-59325000D03*
D14*
X55175000Y-75500000D03*
X56825000Y-75500000D03*
D16*
X45000000Y-55750000D03*
X45000000Y-53850000D03*
X43125000Y-54800000D03*
X73000000Y-55750000D03*
X73000000Y-53850000D03*
X71125000Y-54800000D03*
D14*
X71175000Y-75500000D03*
X72825000Y-75500000D03*
D11*
X76000000Y-65000000D03*
D12*
X76000000Y-62460000D03*
D10*
X73000000Y-59325000D03*
X73000000Y-57675000D03*
D16*
X65000000Y-55750000D03*
X65000000Y-53850000D03*
X63125000Y-54800000D03*
X61000000Y-55750000D03*
X61000000Y-53850000D03*
X59125000Y-54800000D03*
D10*
X49000000Y-59325000D03*
X49000000Y-57675000D03*
X69000000Y-59325000D03*
X69000000Y-57675000D03*
D14*
X63175000Y-75500000D03*
X64825000Y-75500000D03*
X51175000Y-71000000D03*
X52825000Y-71000000D03*
D10*
X77000000Y-59325000D03*
X77000000Y-57675000D03*
D14*
X38925000Y-54000000D03*
X40575000Y-54000000D03*
D16*
X57000000Y-55750000D03*
X57000000Y-53850000D03*
X55125000Y-54800000D03*
D14*
X43175000Y-71000000D03*
X44825000Y-71000000D03*
X75175000Y-71000000D03*
X76825000Y-71000000D03*
D10*
X53000000Y-59325000D03*
X53000000Y-57675000D03*
D16*
X69000000Y-55750000D03*
X69000000Y-53850000D03*
X67125000Y-54800000D03*
D10*
X61000000Y-59325000D03*
X61000000Y-57675000D03*
D13*
X59000000Y-57675000D03*
X59000000Y-59325000D03*
D11*
X52000000Y-65000000D03*
D12*
X52000000Y-62460000D03*
D17*
X55050000Y-53875000D03*
X71000000Y-56525000D03*
X43000000Y-56500000D03*
X55000000Y-56525000D03*
X59000000Y-56525000D03*
X63000000Y-56525000D03*
X47000000Y-56525000D03*
X63050000Y-53875000D03*
X75000000Y-56525000D03*
X51050000Y-53875000D03*
X43050000Y-53850000D03*
X75050000Y-53875000D03*
X67000000Y-56525000D03*
X51000000Y-56525000D03*
X67050000Y-53875000D03*
X71050000Y-53875000D03*
X59050000Y-53875000D03*
X47050000Y-53875000D03*
X50000000Y-60200000D03*
X72000000Y-57000000D03*
X56000000Y-57000000D03*
X60000000Y-57000000D03*
X68000000Y-57000000D03*
X46000000Y-60200000D03*
X62000000Y-60200000D03*
X48000000Y-57000000D03*
X78000000Y-60200000D03*
X74000000Y-60200000D03*
X66000000Y-60200000D03*
X54000000Y-60200000D03*
X76000000Y-57000000D03*
X52000000Y-57000000D03*
X64000000Y-57000000D03*
X70000000Y-60200000D03*
X44000000Y-57000000D03*
X58000000Y-60200000D03*
D18*
X43000000Y-57675000D02*
X43000000Y-56500000D01*
X67000000Y-57700000D02*
X67000000Y-56525000D01*
X47000000Y-57700000D02*
X47000000Y-56525000D01*
X42150000Y-53850000D02*
X42000000Y-54000000D01*
X63000000Y-57700000D02*
X63000000Y-56525000D01*
X43150000Y-53850000D02*
X43050000Y-53850000D01*
X71000000Y-57700000D02*
X71000000Y-56525000D01*
X40575000Y-54000000D02*
X40575000Y-55425000D01*
X38235000Y-56735000D02*
X35750000Y-56735000D01*
X77000000Y-53850000D02*
X47150000Y-53850000D01*
X55000000Y-57700000D02*
X55000000Y-56525000D01*
X47150000Y-53850000D02*
X43150000Y-53850000D01*
X40575000Y-55425000D02*
X39990000Y-56010000D01*
X51000000Y-57700000D02*
X51000000Y-56525000D01*
X42000000Y-54000000D02*
X40575000Y-54000000D01*
X39990000Y-57500000D02*
X39000000Y-57500000D01*
X59000000Y-57700000D02*
X59000000Y-56525000D01*
X39000000Y-57500000D02*
X38235000Y-56735000D01*
X75000000Y-57700000D02*
X75000000Y-56525000D01*
X39990000Y-56010000D02*
X39990000Y-57500000D01*
X43050000Y-53850000D02*
X42150000Y-53850000D01*
X39990000Y-59050000D02*
X41264520Y-57775480D01*
X55125000Y-55325000D02*
X56100000Y-56300000D01*
X72825000Y-75500000D02*
X72825000Y-68825000D01*
X44825000Y-69412500D02*
X44000000Y-68587500D01*
X64100000Y-56900000D02*
X64100000Y-56300000D01*
X62000000Y-63000000D02*
X62000000Y-60200000D01*
X58000000Y-63000000D02*
X58000000Y-60200000D01*
X68000000Y-65000000D02*
X70000000Y-63000000D01*
X63125000Y-54800000D02*
X63125000Y-55325000D01*
X44000000Y-57000000D02*
X44675000Y-57675000D01*
X68000000Y-68087500D02*
X68000000Y-65000000D01*
X64825000Y-68825000D02*
X64000000Y-68000000D01*
X52000000Y-68000000D02*
X52000000Y-65000000D01*
X63125000Y-55325000D02*
X64100000Y-56300000D01*
X67125000Y-55325000D02*
X68100000Y-56300000D01*
X64000000Y-65000000D02*
X66000000Y-63000000D01*
X60675000Y-57675000D02*
X61000000Y-57675000D01*
X50000000Y-63000000D02*
X50000000Y-60200000D01*
X44000000Y-65000000D02*
X46000000Y-63000000D01*
X44100000Y-56900000D02*
X44100000Y-56300000D01*
X60825000Y-71000000D02*
X60825000Y-68825000D01*
X76000000Y-57000000D02*
X76675000Y-57675000D01*
X48825000Y-69325000D02*
X48000000Y-68500000D01*
X43125000Y-54800000D02*
X45200000Y-54800000D01*
X52825000Y-71000000D02*
X52825000Y-68825000D01*
X48000000Y-68500000D02*
X48000000Y-65000000D01*
X46000000Y-63000000D02*
X46000000Y-60200000D01*
X44000000Y-68587500D02*
X44000000Y-65000000D01*
X52000000Y-57000000D02*
X52675000Y-57675000D01*
X48825000Y-75500000D02*
X48825000Y-69325000D01*
X75125000Y-54800000D02*
X75125000Y-55325000D01*
X35750000Y-59275000D02*
X39765000Y-59275000D01*
X52825000Y-68825000D02*
X52000000Y-68000000D01*
X60825000Y-68825000D02*
X60000000Y-68000000D01*
X52000000Y-65000000D02*
X54000000Y-63000000D01*
X60000000Y-65000000D02*
X62000000Y-63000000D01*
X74000000Y-63000000D02*
X74000000Y-60200000D01*
X64000000Y-68000000D02*
X64000000Y-65000000D01*
X68825000Y-68912500D02*
X68000000Y-68087500D01*
X76000000Y-68087500D02*
X76000000Y-65000000D01*
X67125000Y-54800000D02*
X67125000Y-55325000D01*
X47125000Y-55325000D02*
X48100000Y-56300000D01*
X66000000Y-63000000D02*
X66000000Y-60200000D01*
X51125000Y-54800000D02*
X51125000Y-55325000D01*
X76100000Y-56900000D02*
X76100000Y-56300000D01*
X60000000Y-68000000D02*
X60000000Y-65000000D01*
X68675000Y-57675000D02*
X69000000Y-57675000D01*
X56825000Y-68825000D02*
X56000000Y-68000000D01*
X76825000Y-68912500D02*
X76000000Y-68087500D01*
X52675000Y-57675000D02*
X53000000Y-57675000D01*
X76825000Y-71000000D02*
X76825000Y-68912500D01*
X68000000Y-57000000D02*
X68675000Y-57675000D01*
X56100000Y-56900000D02*
X56100000Y-56300000D01*
X72100000Y-56900000D02*
X72100000Y-56300000D01*
X72000000Y-68000000D02*
X72000000Y-65000000D01*
X47125000Y-54800000D02*
X47125000Y-55325000D01*
X72000000Y-57000000D02*
X72675000Y-57675000D01*
X56675000Y-57675000D02*
X57000000Y-57675000D01*
X72825000Y-68825000D02*
X72000000Y-68000000D01*
X44825000Y-71000000D02*
X44825000Y-69412500D01*
X43125000Y-55325000D02*
X44100000Y-56300000D01*
X41264520Y-57775480D02*
X41264520Y-55735480D01*
X48100000Y-56900000D02*
X48100000Y-56300000D01*
X64800000Y-54800000D02*
X75125000Y-54800000D01*
X64000000Y-57000000D02*
X64675000Y-57675000D01*
X75125000Y-55325000D02*
X76100000Y-56300000D01*
X68100000Y-56900000D02*
X68100000Y-56300000D01*
X54000000Y-63000000D02*
X54000000Y-60200000D01*
X76675000Y-57675000D02*
X77000000Y-57675000D01*
X59125000Y-55325000D02*
X60100000Y-56300000D01*
X48675000Y-57675000D02*
X49000000Y-57675000D01*
X48000000Y-65000000D02*
X50000000Y-63000000D01*
X60100000Y-56900000D02*
X60100000Y-56300000D01*
X56825000Y-75500000D02*
X56825000Y-68825000D01*
X64825000Y-75500000D02*
X64825000Y-68825000D01*
X72675000Y-57675000D02*
X73000000Y-57675000D01*
X68825000Y-71000000D02*
X68825000Y-68912500D01*
X55125000Y-54800000D02*
X55125000Y-55325000D01*
X44675000Y-57675000D02*
X45000000Y-57675000D01*
X56000000Y-68000000D02*
X56000000Y-65000000D01*
X39765000Y-59275000D02*
X39990000Y-59050000D01*
X56000000Y-65000000D02*
X58000000Y-63000000D01*
X59125000Y-54800000D02*
X59125000Y-55325000D01*
X56000000Y-57000000D02*
X56675000Y-57675000D01*
X60000000Y-57000000D02*
X60675000Y-57675000D01*
X71125000Y-55325000D02*
X72100000Y-56300000D01*
X48000000Y-57000000D02*
X48675000Y-57675000D01*
X43125000Y-54800000D02*
X43125000Y-55325000D01*
X78000000Y-63000000D02*
X78000000Y-60200000D01*
X51125000Y-55325000D02*
X52100000Y-56300000D01*
X42200000Y-54800000D02*
X43125000Y-54800000D01*
X41264520Y-55735480D02*
X42200000Y-54800000D01*
X52100000Y-56900000D02*
X52100000Y-56300000D01*
X70000000Y-63000000D02*
X70000000Y-60200000D01*
X76000000Y-65000000D02*
X78000000Y-63000000D01*
X45200000Y-54800000D02*
X64800000Y-54800000D01*
X71125000Y-54800000D02*
X71125000Y-55325000D01*
X72000000Y-65000000D02*
X74000000Y-63000000D01*
X64675000Y-57675000D02*
X65000000Y-57675000D01*
X35945000Y-54000000D02*
X38925000Y-54000000D01*
X35750000Y-54195000D02*
X35945000Y-54000000D01*
X77900000Y-57125000D02*
X77000000Y-56225000D01*
X77000000Y-61460000D02*
X76000000Y-62460000D01*
X77475000Y-59350000D02*
X77900000Y-58925000D01*
X77000000Y-59325000D02*
X77000000Y-61460000D01*
X77900000Y-58925000D02*
X77900000Y-57125000D01*
X75175000Y-69337500D02*
X74000000Y-68162500D01*
X74000000Y-64460000D02*
X76000000Y-62460000D01*
X77000000Y-56225000D02*
X77000000Y-55775000D01*
X75175000Y-71000000D02*
X75175000Y-69337500D01*
X74000000Y-68162500D02*
X74000000Y-64460000D01*
X75000000Y-59325000D02*
X77000000Y-59325000D01*
X77000000Y-59350000D02*
X77475000Y-59350000D01*
X73000000Y-61460000D02*
X72000000Y-62460000D01*
X71175000Y-75500000D02*
X71175000Y-69175000D01*
X73900000Y-58925000D02*
X73900000Y-57125000D01*
X70000000Y-64460000D02*
X72000000Y-62460000D01*
X73000000Y-56225000D02*
X73000000Y-55775000D01*
X73475000Y-59350000D02*
X73900000Y-58925000D01*
X73000000Y-59325000D02*
X73000000Y-61460000D01*
X70000000Y-68000000D02*
X70000000Y-64460000D01*
X71175000Y-69175000D02*
X70000000Y-68000000D01*
X71000000Y-59325000D02*
X73000000Y-59325000D01*
X73000000Y-59350000D02*
X73475000Y-59350000D01*
X73900000Y-57125000D02*
X73000000Y-56225000D01*
X69000000Y-61460000D02*
X68000000Y-62460000D01*
X69475000Y-59350000D02*
X69900000Y-58925000D01*
X67175000Y-69337500D02*
X66000000Y-68162500D01*
X69900000Y-58925000D02*
X69900000Y-57125000D01*
X67000000Y-59325000D02*
X69000000Y-59325000D01*
X69000000Y-56225000D02*
X69000000Y-55775000D01*
X67175000Y-71000000D02*
X67175000Y-69337500D01*
X66000000Y-64460000D02*
X68000000Y-62460000D01*
X69000000Y-59350000D02*
X69475000Y-59350000D01*
X66000000Y-68162500D02*
X66000000Y-64460000D01*
X69000000Y-59325000D02*
X69000000Y-61460000D01*
X69900000Y-57125000D02*
X69000000Y-56225000D01*
X63175000Y-75500000D02*
X63175000Y-69175000D01*
X62000000Y-64460000D02*
X64000000Y-62460000D01*
X65000000Y-59350000D02*
X65475000Y-59350000D01*
X63175000Y-69175000D02*
X62000000Y-68000000D01*
X65475000Y-59350000D02*
X65900000Y-58925000D01*
X65000000Y-61460000D02*
X64000000Y-62460000D01*
X65000000Y-59325000D02*
X65000000Y-61460000D01*
X63000000Y-59325000D02*
X65000000Y-59325000D01*
X65900000Y-57125000D02*
X65000000Y-56225000D01*
X62000000Y-68000000D02*
X62000000Y-64460000D01*
X65000000Y-56225000D02*
X65000000Y-55775000D01*
X65900000Y-58925000D02*
X65900000Y-57125000D01*
X61900000Y-57125000D02*
X61000000Y-56225000D01*
X58000000Y-68000000D02*
X58000000Y-64460000D01*
X59175000Y-69175000D02*
X58000000Y-68000000D01*
X61900000Y-58925000D02*
X61900000Y-57125000D01*
X58000000Y-64460000D02*
X60000000Y-62460000D01*
X61475000Y-59350000D02*
X61900000Y-58925000D01*
X61000000Y-61460000D02*
X60000000Y-62460000D01*
X61000000Y-59325000D02*
X61000000Y-61460000D01*
X59175000Y-71000000D02*
X59175000Y-69175000D01*
X61000000Y-56225000D02*
X61000000Y-55775000D01*
X61000000Y-59350000D02*
X61475000Y-59350000D01*
X59000000Y-59325000D02*
X61000000Y-59325000D01*
X54000000Y-68162500D02*
X55175000Y-69337500D01*
X57900000Y-58925000D02*
X57900000Y-57125000D01*
X55175000Y-69337500D02*
X55175000Y-75500000D01*
X57000000Y-59325000D02*
X57000000Y-61460000D01*
X57000000Y-56225000D02*
X57000000Y-55775000D01*
X57000000Y-59350000D02*
X57475000Y-59350000D01*
X57000000Y-61460000D02*
X56000000Y-62460000D01*
X57900000Y-57125000D02*
X57000000Y-56225000D01*
X56000000Y-62460000D02*
X54000000Y-64460000D01*
X57475000Y-59350000D02*
X57900000Y-58925000D01*
X54000000Y-64460000D02*
X54000000Y-68162500D01*
X55000000Y-59325000D02*
X57000000Y-59325000D01*
X53000000Y-61460000D02*
X52000000Y-62460000D01*
X51000000Y-59325000D02*
X53000000Y-59325000D01*
X51175000Y-71000000D02*
X51175000Y-69175000D01*
X53900000Y-58925000D02*
X53900000Y-57125000D01*
X53000000Y-59350000D02*
X53475000Y-59350000D01*
X50000000Y-68000000D02*
X50000000Y-64460000D01*
X50000000Y-64460000D02*
X52000000Y-62460000D01*
X51175000Y-69175000D02*
X50000000Y-68000000D01*
X53900000Y-57125000D02*
X53000000Y-56225000D01*
X53000000Y-59325000D02*
X53000000Y-61460000D01*
X53000000Y-56225000D02*
X53000000Y-55775000D01*
X53475000Y-59350000D02*
X53900000Y-58925000D01*
X49000000Y-59350000D02*
X49475000Y-59350000D01*
X47175000Y-75500000D02*
X47175000Y-69675000D01*
X46000000Y-64460000D02*
X48000000Y-62460000D01*
X49475000Y-59350000D02*
X49900000Y-58925000D01*
X47175000Y-69675000D02*
X46000000Y-68500000D01*
X49900000Y-58925000D02*
X49900000Y-57125000D01*
X46000000Y-68500000D02*
X46000000Y-64460000D01*
X49000000Y-61460000D02*
X48000000Y-62460000D01*
X47000000Y-59325000D02*
X49000000Y-59325000D01*
X49000000Y-59325000D02*
X49000000Y-61460000D01*
X49900000Y-57125000D02*
X49000000Y-56225000D01*
X49000000Y-56225000D02*
X49000000Y-55775000D01*
X44000000Y-62460000D02*
X45000000Y-61460000D01*
X43175000Y-69675000D02*
X42000000Y-68500000D01*
X45900000Y-58900000D02*
X45900000Y-57100000D01*
X45000000Y-56200000D02*
X45000000Y-55750000D01*
X45000000Y-61460000D02*
X45000000Y-59325000D01*
X45475000Y-59325000D02*
X45900000Y-58900000D01*
X42000000Y-64460000D02*
X44000000Y-62460000D01*
X43000000Y-59325000D02*
X45000000Y-59325000D01*
X42000000Y-68500000D02*
X42000000Y-64460000D01*
X45900000Y-57100000D02*
X45000000Y-56200000D01*
X45000000Y-59325000D02*
X45475000Y-59325000D01*
X43175000Y-71000000D02*
X43175000Y-69675000D01*
M02*
