%FSLAX45Y45*%
G04 Gerber Fmt 4.5, Leading zero omitted, Abs format (unit mm)*
G04 Created by KiCad (PCBNEW (6.0.2)) date 2022-02-22 17:34:32*
%MOMM*%
%LPD*%
G01*
G04 APERTURE LIST*
%TA.AperFunction,Profile*%
%ADD10C,0.100000*%
%TD*%
%ADD11C,0.200000*%
%ADD12C,0.040000*%
%ADD13C,0.100000*%
G04 APERTURE END LIST*
D10*
X2970000Y-5000000D02*
X7870000Y-5000000D01*
X7870000Y-5000000D02*
X7870000Y-7700000D01*
X7870000Y-7700000D02*
X2970000Y-7700000D01*
X2970000Y-7700000D02*
X2970000Y-5000000D01*
D11*
D12*
X4280000Y-5630000D02*
X4320000Y-5670000D01*
X4320000Y-5630000D02*
X4280000Y-5670000D01*
X4285000Y-5365000D02*
X4325000Y-5405000D01*
X4325000Y-5365000D02*
X4285000Y-5405000D01*
X4380000Y-5680000D02*
X4420000Y-5720000D01*
X4420000Y-5680000D02*
X4380000Y-5720000D01*
X4580000Y-6000000D02*
X4620000Y-6040000D01*
X4620000Y-6000000D02*
X4580000Y-6040000D01*
X4680000Y-5632500D02*
X4720000Y-5672500D01*
X4720000Y-5632500D02*
X4680000Y-5672500D01*
X4685000Y-5367500D02*
X4725000Y-5407500D01*
X4725000Y-5367500D02*
X4685000Y-5407500D01*
X4780000Y-5680000D02*
X4820000Y-5720000D01*
X4820000Y-5680000D02*
X4780000Y-5720000D01*
X4980000Y-6000000D02*
X5020000Y-6040000D01*
X5020000Y-6000000D02*
X4980000Y-6040000D01*
X5080000Y-5632500D02*
X5120000Y-5672500D01*
X5120000Y-5632500D02*
X5080000Y-5672500D01*
X5085000Y-5367500D02*
X5125000Y-5407500D01*
X5125000Y-5367500D02*
X5085000Y-5407500D01*
X5180000Y-5680000D02*
X5220000Y-5720000D01*
X5220000Y-5680000D02*
X5180000Y-5720000D01*
X5380000Y-6000000D02*
X5420000Y-6040000D01*
X5420000Y-6000000D02*
X5380000Y-6040000D01*
X5480000Y-5632500D02*
X5520000Y-5672500D01*
X5520000Y-5632500D02*
X5480000Y-5672500D01*
X5485000Y-5367500D02*
X5525000Y-5407500D01*
X5525000Y-5367500D02*
X5485000Y-5407500D01*
X5580000Y-5680000D02*
X5620000Y-5720000D01*
X5620000Y-5680000D02*
X5580000Y-5720000D01*
X5780000Y-6000000D02*
X5820000Y-6040000D01*
X5820000Y-6000000D02*
X5780000Y-6040000D01*
X5880000Y-5632500D02*
X5920000Y-5672500D01*
X5920000Y-5632500D02*
X5880000Y-5672500D01*
X5885000Y-5367500D02*
X5925000Y-5407500D01*
X5925000Y-5367500D02*
X5885000Y-5407500D01*
X5980000Y-5680000D02*
X6020000Y-5720000D01*
X6020000Y-5680000D02*
X5980000Y-5720000D01*
X6180000Y-6000000D02*
X6220000Y-6040000D01*
X6220000Y-6000000D02*
X6180000Y-6040000D01*
X6280000Y-5632500D02*
X6320000Y-5672500D01*
X6320000Y-5632500D02*
X6280000Y-5672500D01*
X6285000Y-5367500D02*
X6325000Y-5407500D01*
X6325000Y-5367500D02*
X6285000Y-5407500D01*
X6380000Y-5680000D02*
X6420000Y-5720000D01*
X6420000Y-5680000D02*
X6380000Y-5720000D01*
X6580000Y-6000000D02*
X6620000Y-6040000D01*
X6620000Y-6000000D02*
X6580000Y-6040000D01*
X6680000Y-5632500D02*
X6720000Y-5672500D01*
X6720000Y-5632500D02*
X6680000Y-5672500D01*
X6685000Y-5367500D02*
X6725000Y-5407500D01*
X6725000Y-5367500D02*
X6685000Y-5407500D01*
X6780000Y-5680000D02*
X6820000Y-5720000D01*
X6820000Y-5680000D02*
X6780000Y-5720000D01*
X6980000Y-6000000D02*
X7020000Y-6040000D01*
X7020000Y-6000000D02*
X6980000Y-6040000D01*
X7080000Y-5632500D02*
X7120000Y-5672500D01*
X7120000Y-5632500D02*
X7080000Y-5672500D01*
X7085000Y-5367500D02*
X7125000Y-5407500D01*
X7125000Y-5367500D02*
X7085000Y-5407500D01*
X7180000Y-5680000D02*
X7220000Y-5720000D01*
X7220000Y-5680000D02*
X7180000Y-5720000D01*
X7380000Y-6000000D02*
X7420000Y-6040000D01*
X7420000Y-6000000D02*
X7380000Y-6040000D01*
X7480000Y-5632500D02*
X7520000Y-5672500D01*
X7520000Y-5632500D02*
X7480000Y-5672500D01*
X7485000Y-5367500D02*
X7525000Y-5407500D01*
X7525000Y-5367500D02*
X7485000Y-5407500D01*
X7580000Y-5680000D02*
X7620000Y-5720000D01*
X7620000Y-5680000D02*
X7580000Y-5720000D01*
X7780000Y-6000000D02*
X7820000Y-6040000D01*
X7820000Y-6000000D02*
X7780000Y-6040000D01*
D13*
X3625000Y-5419500D02*
G75*
G03*
X3625000Y-5419500I-50000J0D01*
G01*
X3625000Y-5673500D02*
G75*
G03*
X3625000Y-5673500I-50000J0D01*
G01*
X3625000Y-5927500D02*
G75*
G03*
X3625000Y-5927500I-50000J0D01*
G01*
X4450000Y-6246000D02*
G75*
G03*
X4450000Y-6246000I-50000J0D01*
G01*
X4450000Y-6500000D02*
G75*
G03*
X4450000Y-6500000I-50000J0D01*
G01*
X4850000Y-6246000D02*
G75*
G03*
X4850000Y-6246000I-50000J0D01*
G01*
X4850000Y-6500000D02*
G75*
G03*
X4850000Y-6500000I-50000J0D01*
G01*
X5250000Y-6246000D02*
G75*
G03*
X5250000Y-6246000I-50000J0D01*
G01*
X5250000Y-6500000D02*
G75*
G03*
X5250000Y-6500000I-50000J0D01*
G01*
X5650000Y-6246000D02*
G75*
G03*
X5650000Y-6246000I-50000J0D01*
G01*
X5650000Y-6500000D02*
G75*
G03*
X5650000Y-6500000I-50000J0D01*
G01*
X6050000Y-6246000D02*
G75*
G03*
X6050000Y-6246000I-50000J0D01*
G01*
X6050000Y-6500000D02*
G75*
G03*
X6050000Y-6500000I-50000J0D01*
G01*
X6450000Y-6246000D02*
G75*
G03*
X6450000Y-6246000I-50000J0D01*
G01*
X6450000Y-6500000D02*
G75*
G03*
X6450000Y-6500000I-50000J0D01*
G01*
X6850000Y-6246000D02*
G75*
G03*
X6850000Y-6246000I-50000J0D01*
G01*
X6850000Y-6500000D02*
G75*
G03*
X6850000Y-6500000I-50000J0D01*
G01*
X7250000Y-6246000D02*
G75*
G03*
X7250000Y-6246000I-50000J0D01*
G01*
X7250000Y-6500000D02*
G75*
G03*
X7250000Y-6500000I-50000J0D01*
G01*
X7650000Y-6246000D02*
G75*
G03*
X7650000Y-6246000I-50000J0D01*
G01*
X7650000Y-6500000D02*
G75*
G03*
X7650000Y-6500000I-50000J0D01*
G01*
D11*
X3222619Y-8015476D02*
X3222619Y-7815476D01*
X3270238Y-7815476D01*
X3298809Y-7825000D01*
X3317857Y-7844048D01*
X3327381Y-7863095D01*
X3336905Y-7901190D01*
X3336905Y-7929762D01*
X3327381Y-7967857D01*
X3317857Y-7986905D01*
X3298809Y-8005952D01*
X3270238Y-8015476D01*
X3222619Y-8015476D01*
X3422619Y-8015476D02*
X3422619Y-7882143D01*
X3422619Y-7920238D02*
X3432143Y-7901190D01*
X3441667Y-7891667D01*
X3460714Y-7882143D01*
X3479762Y-7882143D01*
X3546428Y-8015476D02*
X3546428Y-7882143D01*
X3546428Y-7815476D02*
X3536905Y-7825000D01*
X3546428Y-7834524D01*
X3555952Y-7825000D01*
X3546428Y-7815476D01*
X3546428Y-7834524D01*
X3670238Y-8015476D02*
X3651190Y-8005952D01*
X3641667Y-7986905D01*
X3641667Y-7815476D01*
X3775000Y-8015476D02*
X3755952Y-8005952D01*
X3746428Y-7986905D01*
X3746428Y-7815476D01*
X4003571Y-8015476D02*
X4003571Y-7815476D01*
X4070238Y-7958333D01*
X4136905Y-7815476D01*
X4136905Y-8015476D01*
X4317857Y-8015476D02*
X4317857Y-7910714D01*
X4308333Y-7891667D01*
X4289286Y-7882143D01*
X4251190Y-7882143D01*
X4232143Y-7891667D01*
X4317857Y-8005952D02*
X4298810Y-8015476D01*
X4251190Y-8015476D01*
X4232143Y-8005952D01*
X4222619Y-7986905D01*
X4222619Y-7967857D01*
X4232143Y-7948809D01*
X4251190Y-7939286D01*
X4298810Y-7939286D01*
X4317857Y-7929762D01*
X4413095Y-7882143D02*
X4413095Y-8082143D01*
X4413095Y-7891667D02*
X4432143Y-7882143D01*
X4470238Y-7882143D01*
X4489286Y-7891667D01*
X4498810Y-7901190D01*
X4508333Y-7920238D01*
X4508333Y-7977381D01*
X4498810Y-7996428D01*
X4489286Y-8005952D01*
X4470238Y-8015476D01*
X4432143Y-8015476D01*
X4413095Y-8005952D01*
X4594048Y-7996428D02*
X4603571Y-8005952D01*
X4594048Y-8015476D01*
X4584524Y-8005952D01*
X4594048Y-7996428D01*
X4594048Y-8015476D01*
X4594048Y-7891667D02*
X4603571Y-7901190D01*
X4594048Y-7910714D01*
X4584524Y-7901190D01*
X4594048Y-7891667D01*
X4594048Y-7910714D01*
D12*
X2925000Y-8325000D02*
X2965000Y-8365000D01*
X2965000Y-8325000D02*
X2925000Y-8365000D01*
D11*
X3260714Y-8235476D02*
X3279762Y-8235476D01*
X3298809Y-8245000D01*
X3308333Y-8254524D01*
X3317857Y-8273571D01*
X3327381Y-8311667D01*
X3327381Y-8359286D01*
X3317857Y-8397381D01*
X3308333Y-8416429D01*
X3298809Y-8425952D01*
X3279762Y-8435476D01*
X3260714Y-8435476D01*
X3241667Y-8425952D01*
X3232143Y-8416429D01*
X3222619Y-8397381D01*
X3213095Y-8359286D01*
X3213095Y-8311667D01*
X3222619Y-8273571D01*
X3232143Y-8254524D01*
X3241667Y-8245000D01*
X3260714Y-8235476D01*
X3413095Y-8416429D02*
X3422619Y-8425952D01*
X3413095Y-8435476D01*
X3403571Y-8425952D01*
X3413095Y-8416429D01*
X3413095Y-8435476D01*
X3594048Y-8302143D02*
X3594048Y-8435476D01*
X3546428Y-8225952D02*
X3498809Y-8368809D01*
X3622619Y-8368809D01*
X3736905Y-8235476D02*
X3755952Y-8235476D01*
X3775000Y-8245000D01*
X3784524Y-8254524D01*
X3794048Y-8273571D01*
X3803571Y-8311667D01*
X3803571Y-8359286D01*
X3794048Y-8397381D01*
X3784524Y-8416429D01*
X3775000Y-8425952D01*
X3755952Y-8435476D01*
X3736905Y-8435476D01*
X3717857Y-8425952D01*
X3708333Y-8416429D01*
X3698809Y-8397381D01*
X3689286Y-8359286D01*
X3689286Y-8311667D01*
X3698809Y-8273571D01*
X3708333Y-8254524D01*
X3717857Y-8245000D01*
X3736905Y-8235476D01*
X3927381Y-8235476D02*
X3946428Y-8235476D01*
X3965476Y-8245000D01*
X3975000Y-8254524D01*
X3984524Y-8273571D01*
X3994048Y-8311667D01*
X3994048Y-8359286D01*
X3984524Y-8397381D01*
X3975000Y-8416429D01*
X3965476Y-8425952D01*
X3946428Y-8435476D01*
X3927381Y-8435476D01*
X3908333Y-8425952D01*
X3898809Y-8416429D01*
X3889286Y-8397381D01*
X3879762Y-8359286D01*
X3879762Y-8311667D01*
X3889286Y-8273571D01*
X3898809Y-8254524D01*
X3908333Y-8245000D01*
X3927381Y-8235476D01*
X4079762Y-8435476D02*
X4079762Y-8302143D01*
X4079762Y-8321190D02*
X4089286Y-8311667D01*
X4108333Y-8302143D01*
X4136905Y-8302143D01*
X4155952Y-8311667D01*
X4165476Y-8330714D01*
X4165476Y-8435476D01*
X4165476Y-8330714D02*
X4175000Y-8311667D01*
X4194048Y-8302143D01*
X4222619Y-8302143D01*
X4241667Y-8311667D01*
X4251190Y-8330714D01*
X4251190Y-8435476D01*
X4346429Y-8435476D02*
X4346429Y-8302143D01*
X4346429Y-8321190D02*
X4355952Y-8311667D01*
X4375000Y-8302143D01*
X4403571Y-8302143D01*
X4422619Y-8311667D01*
X4432143Y-8330714D01*
X4432143Y-8435476D01*
X4432143Y-8330714D02*
X4441667Y-8311667D01*
X4460714Y-8302143D01*
X4489286Y-8302143D01*
X4508333Y-8311667D01*
X4517857Y-8330714D01*
X4517857Y-8435476D01*
X4908333Y-8225952D02*
X4736905Y-8483095D01*
X5165476Y-8235476D02*
X5184524Y-8235476D01*
X5203571Y-8245000D01*
X5213095Y-8254524D01*
X5222619Y-8273571D01*
X5232143Y-8311667D01*
X5232143Y-8359286D01*
X5222619Y-8397381D01*
X5213095Y-8416429D01*
X5203571Y-8425952D01*
X5184524Y-8435476D01*
X5165476Y-8435476D01*
X5146429Y-8425952D01*
X5136905Y-8416429D01*
X5127381Y-8397381D01*
X5117857Y-8359286D01*
X5117857Y-8311667D01*
X5127381Y-8273571D01*
X5136905Y-8254524D01*
X5146429Y-8245000D01*
X5165476Y-8235476D01*
X5317857Y-8416429D02*
X5327381Y-8425952D01*
X5317857Y-8435476D01*
X5308333Y-8425952D01*
X5317857Y-8416429D01*
X5317857Y-8435476D01*
X5451190Y-8235476D02*
X5470238Y-8235476D01*
X5489286Y-8245000D01*
X5498810Y-8254524D01*
X5508333Y-8273571D01*
X5517857Y-8311667D01*
X5517857Y-8359286D01*
X5508333Y-8397381D01*
X5498810Y-8416429D01*
X5489286Y-8425952D01*
X5470238Y-8435476D01*
X5451190Y-8435476D01*
X5432143Y-8425952D01*
X5422619Y-8416429D01*
X5413095Y-8397381D01*
X5403571Y-8359286D01*
X5403571Y-8311667D01*
X5413095Y-8273571D01*
X5422619Y-8254524D01*
X5432143Y-8245000D01*
X5451190Y-8235476D01*
X5708333Y-8435476D02*
X5594048Y-8435476D01*
X5651190Y-8435476D02*
X5651190Y-8235476D01*
X5632143Y-8264048D01*
X5613095Y-8283095D01*
X5594048Y-8292619D01*
X5889286Y-8235476D02*
X5794048Y-8235476D01*
X5784524Y-8330714D01*
X5794048Y-8321190D01*
X5813095Y-8311667D01*
X5860714Y-8311667D01*
X5879762Y-8321190D01*
X5889286Y-8330714D01*
X5898809Y-8349762D01*
X5898809Y-8397381D01*
X5889286Y-8416429D01*
X5879762Y-8425952D01*
X5860714Y-8435476D01*
X5813095Y-8435476D01*
X5794048Y-8425952D01*
X5784524Y-8416429D01*
X5965476Y-8235476D02*
X6098809Y-8235476D01*
X6013095Y-8435476D01*
X6165476Y-8235476D02*
X6165476Y-8273571D01*
X6241667Y-8235476D02*
X6241667Y-8273571D01*
X6536905Y-8511667D02*
X6527381Y-8502143D01*
X6508333Y-8473571D01*
X6498809Y-8454524D01*
X6489286Y-8425952D01*
X6479762Y-8378333D01*
X6479762Y-8340238D01*
X6489286Y-8292619D01*
X6498809Y-8264048D01*
X6508333Y-8245000D01*
X6527381Y-8216428D01*
X6536905Y-8206905D01*
X6594048Y-8235476D02*
X6717857Y-8235476D01*
X6651190Y-8311667D01*
X6679762Y-8311667D01*
X6698809Y-8321190D01*
X6708333Y-8330714D01*
X6717857Y-8349762D01*
X6717857Y-8397381D01*
X6708333Y-8416429D01*
X6698809Y-8425952D01*
X6679762Y-8435476D01*
X6622619Y-8435476D01*
X6603571Y-8425952D01*
X6594048Y-8416429D01*
X6889286Y-8235476D02*
X6851190Y-8235476D01*
X6832143Y-8245000D01*
X6822619Y-8254524D01*
X6803571Y-8283095D01*
X6794048Y-8321190D01*
X6794048Y-8397381D01*
X6803571Y-8416429D01*
X6813095Y-8425952D01*
X6832143Y-8435476D01*
X6870238Y-8435476D01*
X6889286Y-8425952D01*
X6898809Y-8416429D01*
X6908333Y-8397381D01*
X6908333Y-8349762D01*
X6898809Y-8330714D01*
X6889286Y-8321190D01*
X6870238Y-8311667D01*
X6832143Y-8311667D01*
X6813095Y-8321190D01*
X6803571Y-8330714D01*
X6794048Y-8349762D01*
X7146428Y-8435476D02*
X7146428Y-8235476D01*
X7232143Y-8435476D02*
X7232143Y-8330714D01*
X7222619Y-8311667D01*
X7203571Y-8302143D01*
X7175000Y-8302143D01*
X7155952Y-8311667D01*
X7146428Y-8321190D01*
X7355952Y-8435476D02*
X7336905Y-8425952D01*
X7327381Y-8416429D01*
X7317857Y-8397381D01*
X7317857Y-8340238D01*
X7327381Y-8321190D01*
X7336905Y-8311667D01*
X7355952Y-8302143D01*
X7384524Y-8302143D01*
X7403571Y-8311667D01*
X7413095Y-8321190D01*
X7422619Y-8340238D01*
X7422619Y-8397381D01*
X7413095Y-8416429D01*
X7403571Y-8425952D01*
X7384524Y-8435476D01*
X7355952Y-8435476D01*
X7536905Y-8435476D02*
X7517857Y-8425952D01*
X7508333Y-8406905D01*
X7508333Y-8235476D01*
X7689286Y-8425952D02*
X7670238Y-8435476D01*
X7632143Y-8435476D01*
X7613095Y-8425952D01*
X7603571Y-8406905D01*
X7603571Y-8330714D01*
X7613095Y-8311667D01*
X7632143Y-8302143D01*
X7670238Y-8302143D01*
X7689286Y-8311667D01*
X7698809Y-8330714D01*
X7698809Y-8349762D01*
X7603571Y-8368809D01*
X7775000Y-8425952D02*
X7794048Y-8435476D01*
X7832143Y-8435476D01*
X7851190Y-8425952D01*
X7860714Y-8406905D01*
X7860714Y-8397381D01*
X7851190Y-8378333D01*
X7832143Y-8368809D01*
X7803571Y-8368809D01*
X7784524Y-8359286D01*
X7775000Y-8340238D01*
X7775000Y-8330714D01*
X7784524Y-8311667D01*
X7803571Y-8302143D01*
X7832143Y-8302143D01*
X7851190Y-8311667D01*
X7927381Y-8511667D02*
X7936905Y-8502143D01*
X7955952Y-8473571D01*
X7965476Y-8454524D01*
X7975000Y-8425952D01*
X7984524Y-8378333D01*
X7984524Y-8340238D01*
X7975000Y-8292619D01*
X7965476Y-8264048D01*
X7955952Y-8245000D01*
X7936905Y-8216428D01*
X7927381Y-8206905D01*
D13*
X2965000Y-8609000D02*
G75*
G03*
X2965000Y-8609000I-50000J0D01*
G01*
D11*
X3327381Y-8699476D02*
X3213095Y-8699476D01*
X3270238Y-8699476D02*
X3270238Y-8499476D01*
X3251190Y-8528048D01*
X3232143Y-8547095D01*
X3213095Y-8556619D01*
X3413095Y-8680429D02*
X3422619Y-8689952D01*
X3413095Y-8699476D01*
X3403571Y-8689952D01*
X3413095Y-8680429D01*
X3413095Y-8699476D01*
X3546428Y-8499476D02*
X3565476Y-8499476D01*
X3584524Y-8509000D01*
X3594048Y-8518524D01*
X3603571Y-8537571D01*
X3613095Y-8575667D01*
X3613095Y-8623286D01*
X3603571Y-8661381D01*
X3594048Y-8680429D01*
X3584524Y-8689952D01*
X3565476Y-8699476D01*
X3546428Y-8699476D01*
X3527381Y-8689952D01*
X3517857Y-8680429D01*
X3508333Y-8661381D01*
X3498809Y-8623286D01*
X3498809Y-8575667D01*
X3508333Y-8537571D01*
X3517857Y-8518524D01*
X3527381Y-8509000D01*
X3546428Y-8499476D01*
X3736905Y-8499476D02*
X3755952Y-8499476D01*
X3775000Y-8509000D01*
X3784524Y-8518524D01*
X3794048Y-8537571D01*
X3803571Y-8575667D01*
X3803571Y-8623286D01*
X3794048Y-8661381D01*
X3784524Y-8680429D01*
X3775000Y-8689952D01*
X3755952Y-8699476D01*
X3736905Y-8699476D01*
X3717857Y-8689952D01*
X3708333Y-8680429D01*
X3698809Y-8661381D01*
X3689286Y-8623286D01*
X3689286Y-8575667D01*
X3698809Y-8537571D01*
X3708333Y-8518524D01*
X3717857Y-8509000D01*
X3736905Y-8499476D01*
X3927381Y-8499476D02*
X3946428Y-8499476D01*
X3965476Y-8509000D01*
X3975000Y-8518524D01*
X3984524Y-8537571D01*
X3994048Y-8575667D01*
X3994048Y-8623286D01*
X3984524Y-8661381D01*
X3975000Y-8680429D01*
X3965476Y-8689952D01*
X3946428Y-8699476D01*
X3927381Y-8699476D01*
X3908333Y-8689952D01*
X3898809Y-8680429D01*
X3889286Y-8661381D01*
X3879762Y-8623286D01*
X3879762Y-8575667D01*
X3889286Y-8537571D01*
X3898809Y-8518524D01*
X3908333Y-8509000D01*
X3927381Y-8499476D01*
X4079762Y-8699476D02*
X4079762Y-8566143D01*
X4079762Y-8585190D02*
X4089286Y-8575667D01*
X4108333Y-8566143D01*
X4136905Y-8566143D01*
X4155952Y-8575667D01*
X4165476Y-8594714D01*
X4165476Y-8699476D01*
X4165476Y-8594714D02*
X4175000Y-8575667D01*
X4194048Y-8566143D01*
X4222619Y-8566143D01*
X4241667Y-8575667D01*
X4251190Y-8594714D01*
X4251190Y-8699476D01*
X4346429Y-8699476D02*
X4346429Y-8566143D01*
X4346429Y-8585190D02*
X4355952Y-8575667D01*
X4375000Y-8566143D01*
X4403571Y-8566143D01*
X4422619Y-8575667D01*
X4432143Y-8594714D01*
X4432143Y-8699476D01*
X4432143Y-8594714D02*
X4441667Y-8575667D01*
X4460714Y-8566143D01*
X4489286Y-8566143D01*
X4508333Y-8575667D01*
X4517857Y-8594714D01*
X4517857Y-8699476D01*
X4908333Y-8489952D02*
X4736905Y-8747095D01*
X5165476Y-8499476D02*
X5184524Y-8499476D01*
X5203571Y-8509000D01*
X5213095Y-8518524D01*
X5222619Y-8537571D01*
X5232143Y-8575667D01*
X5232143Y-8623286D01*
X5222619Y-8661381D01*
X5213095Y-8680429D01*
X5203571Y-8689952D01*
X5184524Y-8699476D01*
X5165476Y-8699476D01*
X5146429Y-8689952D01*
X5136905Y-8680429D01*
X5127381Y-8661381D01*
X5117857Y-8623286D01*
X5117857Y-8575667D01*
X5127381Y-8537571D01*
X5136905Y-8518524D01*
X5146429Y-8509000D01*
X5165476Y-8499476D01*
X5317857Y-8680429D02*
X5327381Y-8689952D01*
X5317857Y-8699476D01*
X5308333Y-8689952D01*
X5317857Y-8680429D01*
X5317857Y-8699476D01*
X5451190Y-8499476D02*
X5470238Y-8499476D01*
X5489286Y-8509000D01*
X5498810Y-8518524D01*
X5508333Y-8537571D01*
X5517857Y-8575667D01*
X5517857Y-8623286D01*
X5508333Y-8661381D01*
X5498810Y-8680429D01*
X5489286Y-8689952D01*
X5470238Y-8699476D01*
X5451190Y-8699476D01*
X5432143Y-8689952D01*
X5422619Y-8680429D01*
X5413095Y-8661381D01*
X5403571Y-8623286D01*
X5403571Y-8575667D01*
X5413095Y-8537571D01*
X5422619Y-8518524D01*
X5432143Y-8509000D01*
X5451190Y-8499476D01*
X5584524Y-8499476D02*
X5708333Y-8499476D01*
X5641667Y-8575667D01*
X5670238Y-8575667D01*
X5689286Y-8585190D01*
X5698809Y-8594714D01*
X5708333Y-8613762D01*
X5708333Y-8661381D01*
X5698809Y-8680429D01*
X5689286Y-8689952D01*
X5670238Y-8699476D01*
X5613095Y-8699476D01*
X5594048Y-8689952D01*
X5584524Y-8680429D01*
X5803571Y-8699476D02*
X5841667Y-8699476D01*
X5860714Y-8689952D01*
X5870238Y-8680429D01*
X5889286Y-8651857D01*
X5898809Y-8613762D01*
X5898809Y-8537571D01*
X5889286Y-8518524D01*
X5879762Y-8509000D01*
X5860714Y-8499476D01*
X5822619Y-8499476D01*
X5803571Y-8509000D01*
X5794048Y-8518524D01*
X5784524Y-8537571D01*
X5784524Y-8585190D01*
X5794048Y-8604238D01*
X5803571Y-8613762D01*
X5822619Y-8623286D01*
X5860714Y-8623286D01*
X5879762Y-8613762D01*
X5889286Y-8604238D01*
X5898809Y-8585190D01*
X6070238Y-8566143D02*
X6070238Y-8699476D01*
X6022619Y-8489952D02*
X5975000Y-8632810D01*
X6098809Y-8632810D01*
X6165476Y-8499476D02*
X6165476Y-8537571D01*
X6241667Y-8499476D02*
X6241667Y-8537571D01*
X6536905Y-8775667D02*
X6527381Y-8766143D01*
X6508333Y-8737571D01*
X6498809Y-8718524D01*
X6489286Y-8689952D01*
X6479762Y-8642333D01*
X6479762Y-8604238D01*
X6489286Y-8556619D01*
X6498809Y-8528048D01*
X6508333Y-8509000D01*
X6527381Y-8480429D01*
X6536905Y-8470905D01*
X6603571Y-8518524D02*
X6613095Y-8509000D01*
X6632143Y-8499476D01*
X6679762Y-8499476D01*
X6698809Y-8509000D01*
X6708333Y-8518524D01*
X6717857Y-8537571D01*
X6717857Y-8556619D01*
X6708333Y-8585190D01*
X6594048Y-8699476D01*
X6717857Y-8699476D01*
X6908333Y-8699476D02*
X6794048Y-8699476D01*
X6851190Y-8699476D02*
X6851190Y-8499476D01*
X6832143Y-8528048D01*
X6813095Y-8547095D01*
X6794048Y-8556619D01*
X7146428Y-8699476D02*
X7146428Y-8499476D01*
X7232143Y-8699476D02*
X7232143Y-8594714D01*
X7222619Y-8575667D01*
X7203571Y-8566143D01*
X7175000Y-8566143D01*
X7155952Y-8575667D01*
X7146428Y-8585190D01*
X7355952Y-8699476D02*
X7336905Y-8689952D01*
X7327381Y-8680429D01*
X7317857Y-8661381D01*
X7317857Y-8604238D01*
X7327381Y-8585190D01*
X7336905Y-8575667D01*
X7355952Y-8566143D01*
X7384524Y-8566143D01*
X7403571Y-8575667D01*
X7413095Y-8585190D01*
X7422619Y-8604238D01*
X7422619Y-8661381D01*
X7413095Y-8680429D01*
X7403571Y-8689952D01*
X7384524Y-8699476D01*
X7355952Y-8699476D01*
X7536905Y-8699476D02*
X7517857Y-8689952D01*
X7508333Y-8670905D01*
X7508333Y-8499476D01*
X7689286Y-8689952D02*
X7670238Y-8699476D01*
X7632143Y-8699476D01*
X7613095Y-8689952D01*
X7603571Y-8670905D01*
X7603571Y-8594714D01*
X7613095Y-8575667D01*
X7632143Y-8566143D01*
X7670238Y-8566143D01*
X7689286Y-8575667D01*
X7698809Y-8594714D01*
X7698809Y-8613762D01*
X7603571Y-8632810D01*
X7775000Y-8689952D02*
X7794048Y-8699476D01*
X7832143Y-8699476D01*
X7851190Y-8689952D01*
X7860714Y-8670905D01*
X7860714Y-8661381D01*
X7851190Y-8642333D01*
X7832143Y-8632810D01*
X7803571Y-8632810D01*
X7784524Y-8623286D01*
X7775000Y-8604238D01*
X7775000Y-8594714D01*
X7784524Y-8575667D01*
X7803571Y-8566143D01*
X7832143Y-8566143D01*
X7851190Y-8575667D01*
X7927381Y-8775667D02*
X7936905Y-8766143D01*
X7955952Y-8737571D01*
X7965476Y-8718524D01*
X7975000Y-8689952D01*
X7984524Y-8642333D01*
X7984524Y-8604238D01*
X7975000Y-8556619D01*
X7965476Y-8528048D01*
X7955952Y-8509000D01*
X7936905Y-8480429D01*
X7927381Y-8470905D01*
M02*
